# MagicaVoxel @ Ephtracy

# group
o 

# material
mtllib Fridge.mtl
usemtl palette

# normals
vn -1 0 0
vn 1 0 0
vn 0 0 1
vn 0 0 -1
vn 0 -1 0
vn 0 1 0

# texcoords
vt 0.970703 0.5
vt 0.974609 0.5
vt 0.982422 0.5
vt 0.990234 0.5

# verts
v -1.9 -4.4 1.5
v -1.9 -4.4 -1.5
v -1.9 1 1.5
v -1.9 1 -1.5
v -1.9 1.6 1.5
v -1.9 1.6 -1.5
v -1.9 3.7 1.5
v -1.9 3.7 -1.5
v -1.9 4.3 1.5
v -1.9 4.3 -1.5
v -1.7 -4.8 1.3
v -1.7 -4.8 1
v -1.7 -4.8 -1
v -1.7 -4.8 -1.3
v -1.7 -4.4 1.3
v -1.7 -4.4 1
v -1.7 -4.4 -1
v -1.7 -4.4 -1.3
v 0.9 -1.7 2.2
v 0.9 -1.7 1.5
v 0.9 -1.3 1.8
v 0.9 -1.3 1.5
v 0.9 0.3 1.8
v 0.9 0.3 1.5
v 0.9 0.7 2.2
v 0.9 0.7 1.5
v 0.9 1.7 2.2
v 0.9 1.7 1.5
v 0.9 2.1 1.8
v 0.9 2.1 1.5
v 0.9 3.1 1.8
v 0.9 3.1 1.5
v 0.9 3.5 2.2
v 0.9 3.5 1.5
v 1.4 -4.8 1.3
v 1.4 -4.8 1
v 1.4 -4.8 -1
v 1.4 -4.8 -1.3
v 1.4 -4.4 1.3
v 1.4 -4.4 1
v 1.4 -4.4 -1
v 1.4 -4.4 -1.3
v -1.4 -4.8 1.3
v -1.4 -4.8 1
v -1.4 -4.8 -1
v -1.4 -4.8 -1.3
v -1.4 -4.4 1.3
v -1.4 -4.4 1
v -1.4 -4.4 -1
v -1.4 -4.4 -1.3
v 1.3 -1.7 2.2
v 1.3 -1.7 1.5
v 1.3 -1.3 1.8
v 1.3 -1.3 1.5
v 1.3 0.3 1.8
v 1.3 0.3 1.5
v 1.3 0.7 2.2
v 1.3 0.7 1.5
v 1.3 1.7 2.2
v 1.3 1.7 1.5
v 1.3 2.1 1.8
v 1.3 2.1 1.5
v 1.3 3.1 1.8
v 1.3 3.1 1.5
v 1.3 3.5 2.2
v 1.3 3.5 1.5
v 1.7 -4.8 1.3
v 1.7 -4.8 1
v 1.7 -4.8 -1
v 1.7 -4.8 -1.3
v 1.7 -4.4 1.3
v 1.7 -4.4 1
v 1.7 -4.4 -1
v 1.7 -4.4 -1.3
v 1.9 -4.4 1.5
v 1.9 -4.4 -1.5
v 1.9 1 1.5
v 1.9 1 -1.5
v 1.9 1.6 1.5
v 1.9 1.6 -1.5
v 1.9 3.7 1.5
v 1.9 3.7 -1.5
v 1.9 4.3 1.5
v 1.9 4.3 -1.5
v 0.9 -1.7 2.2
v 0.9 0.7 2.2
v 0.9 1.7 2.2
v 0.9 3.5 2.2
v 1.3 -1.7 2.2
v 1.3 0.7 2.2
v 1.3 1.7 2.2
v 1.3 3.5 2.2
v -1.9 -4.4 1.5
v -1.9 1 1.5
v -1.9 1.6 1.5
v -1.9 3.7 1.5
v -1.9 4.3 1.5
v 0.9 -1.7 1.5
v 0.9 -1.3 1.5
v 0.9 0.3 1.5
v 0.9 0.7 1.5
v 0.9 1.7 1.5
v 0.9 2.1 1.5
v 0.9 3.1 1.5
v 0.9 3.5 1.5
v 1.3 -1.7 1.5
v 1.3 -1.3 1.5
v 1.3 0.3 1.5
v 1.3 0.7 1.5
v 1.3 1.7 1.5
v 1.3 2.1 1.5
v 1.3 3.1 1.5
v 1.3 3.5 1.5
v 1.9 -4.4 1.5
v 1.9 1 1.5
v 1.9 1.6 1.5
v 1.9 3.7 1.5
v 1.9 4.3 1.5
v -1.7 -4.8 1.3
v -1.7 -4.4 1.3
v -1.4 -4.8 1.3
v -1.4 -4.4 1.3
v 1.4 -4.8 1.3
v 1.4 -4.4 1.3
v 1.7 -4.8 1.3
v 1.7 -4.4 1.3
v -1.7 -4.8 -1
v -1.7 -4.4 -1
v -1.4 -4.8 -1
v -1.4 -4.4 -1
v 1.4 -4.8 -1
v 1.4 -4.4 -1
v 1.7 -4.8 -1
v 1.7 -4.4 -1
v 0.9 -1.3 1.8
v 0.9 0.3 1.8
v 0.9 2.1 1.8
v 0.9 3.1 1.8
v 1.3 -1.3 1.8
v 1.3 0.3 1.8
v 1.3 2.1 1.8
v 1.3 3.1 1.8
v -1.7 -4.8 1
v -1.7 -4.4 1
v -1.4 -4.8 1
v -1.4 -4.4 1
v 1.4 -4.8 1
v 1.4 -4.4 1
v 1.7 -4.8 1
v 1.7 -4.4 1
v -1.7 -4.8 -1.3
v -1.7 -4.4 -1.3
v -1.4 -4.8 -1.3
v -1.4 -4.4 -1.3
v 1.4 -4.8 -1.3
v 1.4 -4.4 -1.3
v 1.7 -4.8 -1.3
v 1.7 -4.4 -1.3
v -1.9 -4.4 -1.5
v -1.9 1 -1.5
v -1.9 1.6 -1.5
v -1.9 3.7 -1.5
v -1.9 4.3 -1.5
v 1.9 -4.4 -1.5
v 1.9 1 -1.5
v 1.9 1.6 -1.5
v 1.9 3.7 -1.5
v 1.9 4.3 -1.5
v -1.7 -4.8 1.3
v -1.4 -4.8 1.3
v 1.4 -4.8 1.3
v 1.7 -4.8 1.3
v -1.7 -4.8 1
v -1.4 -4.8 1
v 1.4 -4.8 1
v 1.7 -4.8 1
v -1.7 -4.8 -1
v -1.4 -4.8 -1
v 1.4 -4.8 -1
v 1.7 -4.8 -1
v -1.7 -4.8 -1.3
v -1.4 -4.8 -1.3
v 1.4 -4.8 -1.3
v 1.7 -4.8 -1.3
v -1.9 -4.4 1.5
v 1.9 -4.4 1.5
v -1.7 -4.4 1.3
v -1.4 -4.4 1.3
v 1.4 -4.4 1.3
v 1.7 -4.4 1.3
v -1.7 -4.4 1
v -1.4 -4.4 1
v 1.4 -4.4 1
v 1.7 -4.4 1
v -1.7 -4.4 -1
v -1.4 -4.4 -1
v 1.4 -4.4 -1
v 1.7 -4.4 -1
v -1.7 -4.4 -1.3
v -1.4 -4.4 -1.3
v 1.4 -4.4 -1.3
v 1.7 -4.4 -1.3
v -1.9 -4.4 -1.5
v 1.9 -4.4 -1.5
v 0.9 -1.7 2.2
v 1.3 -1.7 2.2
v 0.9 -1.7 1.5
v 1.3 -1.7 1.5
v 0.9 0.3 1.8
v 1.3 0.3 1.8
v 0.9 0.3 1.5
v 1.3 0.3 1.5
v 0.9 1.7 2.2
v 1.3 1.7 2.2
v 0.9 1.7 1.5
v 1.3 1.7 1.5
v 0.9 3.1 1.8
v 1.3 3.1 1.8
v 0.9 3.1 1.5
v 1.3 3.1 1.5
v 0.9 -1.3 1.8
v 1.3 -1.3 1.8
v 0.9 -1.3 1.5
v 1.3 -1.3 1.5
v 0.9 0.7 2.2
v 1.3 0.7 2.2
v 0.9 0.7 1.5
v 1.3 0.7 1.5
v 0.9 2.1 1.8
v 1.3 2.1 1.8
v 0.9 2.1 1.5
v 1.3 2.1 1.5
v 0.9 3.5 2.2
v 1.3 3.5 2.2
v 0.9 3.5 1.5
v 1.3 3.5 1.5
v -1.9 4.3 1.5
v 1.9 4.3 1.5
v -1.9 4.3 -1.5
v 1.9 4.3 -1.5

# faces
f 3/1/1 2/1/1 1/1/1
f 4/1/1 2/1/1 3/1/1
f 5/3/1 4/3/1 3/3/1
f 6/3/1 4/3/1 5/3/1
f 7/1/1 6/1/1 5/1/1
f 8/1/1 6/1/1 7/1/1
f 9/3/1 8/3/1 7/3/1
f 10/3/1 8/3/1 9/3/1
f 15/4/1 12/4/1 11/4/1
f 16/4/1 12/4/1 15/4/1
f 17/4/1 14/4/1 13/4/1
f 18/4/1 14/4/1 17/4/1
f 21/2/1 20/2/1 19/2/1
f 22/2/1 20/2/1 21/2/1
f 23/2/1 21/2/1 19/2/1
f 25/2/1 23/2/1 19/2/1
f 25/2/1 24/2/1 23/2/1
f 26/2/1 24/2/1 25/2/1
f 29/2/1 28/2/1 27/2/1
f 30/2/1 28/2/1 29/2/1
f 31/2/1 29/2/1 27/2/1
f 33/2/1 31/2/1 27/2/1
f 33/2/1 32/2/1 31/2/1
f 34/2/1 32/2/1 33/2/1
f 39/4/1 36/4/1 35/4/1
f 40/4/1 36/4/1 39/4/1
f 41/4/1 38/4/1 37/4/1
f 42/4/1 38/4/1 41/4/1
f 43/4/2 44/4/2 47/4/2
f 47/4/2 44/4/2 48/4/2
f 45/4/2 46/4/2 49/4/2
f 49/4/2 46/4/2 50/4/2
f 51/2/2 52/2/2 53/2/2
f 53/2/2 52/2/2 54/2/2
f 51/2/2 53/2/2 55/2/2
f 51/2/2 55/2/2 57/2/2
f 55/2/2 56/2/2 57/2/2
f 57/2/2 56/2/2 58/2/2
f 59/2/2 60/2/2 61/2/2
f 61/2/2 60/2/2 62/2/2
f 59/2/2 61/2/2 63/2/2
f 59/2/2 63/2/2 65/2/2
f 63/2/2 64/2/2 65/2/2
f 65/2/2 64/2/2 66/2/2
f 67/4/2 68/4/2 71/4/2
f 71/4/2 68/4/2 72/4/2
f 69/4/2 70/4/2 73/4/2
f 73/4/2 70/4/2 74/4/2
f 75/1/2 76/1/2 77/1/2
f 77/1/2 76/1/2 78/1/2
f 77/3/2 78/3/2 79/3/2
f 79/3/2 78/3/2 80/3/2
f 79/1/2 80/1/2 81/1/2
f 81/1/2 80/1/2 82/1/2
f 81/3/2 82/3/2 83/3/2
f 83/3/2 82/3/2 84/3/2
f 89/2/3 86/2/3 85/2/3
f 90/2/3 86/2/3 89/2/3
f 91/2/3 88/2/3 87/2/3
f 92/2/3 88/2/3 91/2/3
f 98/1/3 94/1/3 93/1/3
f 99/1/3 94/1/3 98/1/3
f 100/1/3 94/1/3 99/1/3
f 101/1/3 94/1/3 100/1/3
f 102/1/3 96/1/3 95/1/3
f 103/1/3 96/1/3 102/1/3
f 104/1/3 96/1/3 103/1/3
f 105/1/3 96/1/3 104/1/3
f 106/1/3 98/1/3 93/1/3
f 107/1/3 100/1/3 99/1/3
f 108/1/3 100/1/3 107/1/3
f 109/1/3 94/1/3 101/1/3
f 110/1/3 102/1/3 95/1/3
f 111/1/3 104/1/3 103/1/3
f 112/1/3 104/1/3 111/1/3
f 113/1/3 96/1/3 105/1/3
f 114/1/3 108/1/3 107/1/3
f 114/1/3 106/1/3 93/1/3
f 114/1/3 109/1/3 108/1/3
f 114/1/3 107/1/3 106/1/3
f 115/3/3 95/3/3 94/3/3
f 115/1/3 109/1/3 114/1/3
f 115/1/3 94/1/3 109/1/3
f 116/1/3 113/1/3 112/1/3
f 116/3/3 95/3/3 115/3/3
f 116/1/3 112/1/3 111/1/3
f 116/1/3 110/1/3 95/1/3
f 116/1/3 111/1/3 110/1/3
f 117/3/3 97/3/3 96/3/3
f 117/1/3 113/1/3 116/1/3
f 117/1/3 96/1/3 113/1/3
f 118/3/3 97/3/3 117/3/3
f 121/4/3 120/4/3 119/4/3
f 122/4/3 120/4/3 121/4/3
f 125/4/3 124/4/3 123/4/3
f 126/4/3 124/4/3 125/4/3
f 129/4/3 128/4/3 127/4/3
f 130/4/3 128/4/3 129/4/3
f 133/4/3 132/4/3 131/4/3
f 134/4/3 132/4/3 133/4/3
f 135/2/4 136/2/4 139/2/4
f 139/2/4 136/2/4 140/2/4
f 137/2/4 138/2/4 141/2/4
f 141/2/4 138/2/4 142/2/4
f 143/4/4 144/4/4 145/4/4
f 145/4/4 144/4/4 146/4/4
f 147/4/4 148/4/4 149/4/4
f 149/4/4 148/4/4 150/4/4
f 151/4/4 152/4/4 153/4/4
f 153/4/4 152/4/4 154/4/4
f 155/4/4 156/4/4 157/4/4
f 157/4/4 156/4/4 158/4/4
f 159/1/4 160/1/4 164/1/4
f 160/3/4 161/3/4 165/3/4
f 164/1/4 160/1/4 165/1/4
f 161/1/4 162/1/4 166/1/4
f 165/3/4 161/3/4 166/3/4
f 162/3/4 163/3/4 167/3/4
f 166/1/4 162/1/4 167/1/4
f 167/3/4 163/3/4 168/3/4
f 173/4/5 170/4/5 169/4/5
f 174/4/5 170/4/5 173/4/5
f 175/4/5 172/4/5 171/4/5
f 176/4/5 172/4/5 175/4/5
f 181/4/5 178/4/5 177/4/5
f 182/4/5 178/4/5 181/4/5
f 183/4/5 180/4/5 179/4/5
f 184/4/5 180/4/5 183/4/5
f 187/1/5 186/1/5 185/1/5
f 188/1/5 186/1/5 187/1/5
f 189/1/5 186/1/5 188/1/5
f 190/1/5 186/1/5 189/1/5
f 191/1/5 187/1/5 185/1/5
f 192/1/5 189/1/5 188/1/5
f 193/1/5 189/1/5 192/1/5
f 194/1/5 186/1/5 190/1/5
f 195/1/5 193/1/5 192/1/5
f 195/1/5 194/1/5 193/1/5
f 195/1/5 191/1/5 185/1/5
f 195/1/5 192/1/5 191/1/5
f 196/1/5 194/1/5 195/1/5
f 197/1/5 194/1/5 196/1/5
f 198/1/5 186/1/5 194/1/5
f 198/1/5 194/1/5 197/1/5
f 199/1/5 195/1/5 185/1/5
f 200/1/5 197/1/5 196/1/5
f 201/1/5 197/1/5 200/1/5
f 202/1/5 186/1/5 198/1/5
f 203/1/5 199/1/5 185/1/5
f 203/1/5 202/1/5 201/1/5
f 203/1/5 201/1/5 200/1/5
f 203/1/5 200/1/5 199/1/5
f 204/1/5 186/1/5 202/1/5
f 204/1/5 202/1/5 203/1/5
f 207/2/5 206/2/5 205/2/5
f 208/2/5 206/2/5 207/2/5
f 211/2/5 210/2/5 209/2/5
f 212/2/5 210/2/5 211/2/5
f 215/2/5 214/2/5 213/2/5
f 216/2/5 214/2/5 215/2/5
f 219/2/5 218/2/5 217/2/5
f 220/2/5 218/2/5 219/2/5
f 221/2/6 222/2/6 223/2/6
f 223/2/6 222/2/6 224/2/6
f 225/2/6 226/2/6 227/2/6
f 227/2/6 226/2/6 228/2/6
f 229/2/6 230/2/6 231/2/6
f 231/2/6 230/2/6 232/2/6
f 233/2/6 234/2/6 235/2/6
f 235/2/6 234/2/6 236/2/6
f 237/3/6 238/3/6 239/3/6
f 239/3/6 238/3/6 240/3/6
