# MagicaVoxel @ Ephtracy

# group
o 

# material
mtllib substanceX.mtl
usemtl palette

# normals
vn -1 0 0
vn 1 0 0
vn 0 0 1
vn 0 0 -1
vn 0 -1 0
vn 0 1 0

# texcoords
vt 0.0175781 0.5
vt 0.955078 0.5
vt 0.974609 0.5

# verts
v -1.5 1.1 0.4
v -1.5 1.1 -0.4
v -1.5 1.3 0.4
v -1.5 1.3 -0.4
v -1.4 1.1 0.7
v -1.4 1.1 0.4
v -1.4 1.1 -0.4
v -1.4 1.1 -0.7
v -1.4 1.3 0.7
v -1.4 1.3 0.4
v -1.4 1.3 -0.4
v -1.4 1.3 -0.7
v -1.1 1.1 0.8
v -1.1 1.1 0.7
v -1.1 1.1 -0.7
v -1.1 1.1 -0.8
v -1.1 1.3 0.8
v -1.1 1.3 0.7
v -1.1 1.3 -0.7
v -1.1 1.3 -0.8
v -1 0.5 1
v -1 0.5 -1
v -1 1.1 0.8
v -1 1.1 0.3
v -1 1.1 -0.3
v -1 1.1 -0.8
v -1 1.3 0.8
v -1 1.3 0.3
v -1 1.3 -0.3
v -1 1.3 -0.8
v -1 1.7 1
v -1 1.7 -1
v -0.9 0.3 0.9
v -0.9 0.3 -0.9
v -0.9 0.5 0.9
v -0.9 0.5 -0.9
v -0.8 0.2 0.8
v -0.8 0.2 -0.8
v -0.8 0.3 0.8
v -0.8 0.3 -0.8
v -0.7 0.1 0.7
v -0.7 0.1 -0.7
v -0.7 0.2 0.7
v -0.7 0.2 -0.7
v -0.6 0 0.6
v -0.6 0 -0.6
v -0.6 0.1 0.6
v -0.6 0.1 -0.6
v 0.9 1.5 0.8
v 0.9 1.5 -0.8
v 0.9 1.7 0.8
v 0.9 1.7 -0.8
v 1.3 1.1 0.3
v 1.3 1.1 -0.3
v 1.3 1.3 0.3
v 1.3 1.3 -0.3
v -1.3 1.1 0.3
v -1.3 1.1 -0.3
v -1.3 1.3 0.3
v -1.3 1.3 -0.3
v -0.9 1.5 0.8
v -0.9 1.5 -0.8
v -0.9 1.7 0.8
v -0.9 1.7 -0.8
v 0.6 0 0.6
v 0.6 0 -0.6
v 0.6 0.1 0.6
v 0.6 0.1 -0.6
v 0.7 0.1 0.7
v 0.7 0.1 -0.7
v 0.7 0.2 0.7
v 0.7 0.2 -0.7
v 0.8 0.2 0.8
v 0.8 0.2 -0.8
v 0.8 0.3 0.8
v 0.8 0.3 -0.8
v 0.9 0.3 0.9
v 0.9 0.3 -0.9
v 0.9 0.5 0.9
v 0.9 0.5 -0.9
v 1 0.5 1
v 1 0.5 -1
v 1 1.1 0.8
v 1 1.1 0.3
v 1 1.1 -0.3
v 1 1.1 -0.8
v 1 1.3 0.8
v 1 1.3 0.3
v 1 1.3 -0.3
v 1 1.3 -0.8
v 1 1.7 1
v 1 1.7 -1
v 1.1 1.1 0.8
v 1.1 1.1 0.7
v 1.1 1.1 -0.7
v 1.1 1.1 -0.8
v 1.1 1.3 0.8
v 1.1 1.3 0.7
v 1.1 1.3 -0.7
v 1.1 1.3 -0.8
v 1.4 1.1 0.7
v 1.4 1.1 0.4
v 1.4 1.1 -0.4
v 1.4 1.1 -0.7
v 1.4 1.3 0.7
v 1.4 1.3 0.4
v 1.4 1.3 -0.4
v 1.4 1.3 -0.7
v 1.5 1.1 0.4
v 1.5 1.1 -0.4
v 1.5 1.3 0.4
v 1.5 1.3 -0.4
v -1 0.5 1
v -1 1.7 1
v -0.4 0.7 1
v -0.4 0.8 1
v -0.3 0.7 1
v -0.3 0.8 1
v -0.3 0.9 1
v -0.3 1.2 1
v -0.3 1.5 1
v -0.2 0.8 1
v -0.2 0.9 1
v -0.2 1 1
v -0.2 1.1 1
v -0.2 1.2 1
v -0.2 1.5 1
v -0.1 0.9 1
v -0.1 1 1
v -0.1 1.1 1
v -0.1 1.2 1
v 0 0.9 1
v 0 1 1
v 0 1.1 1
v 0 1.2 1
v 0.1 0.8 1
v 0.1 0.9 1
v 0.1 1 1
v 0.1 1.1 1
v 0.1 1.2 1
v 0.1 1.5 1
v 0.2 0.7 1
v 0.2 0.8 1
v 0.2 0.9 1
v 0.2 1.2 1
v 0.2 1.5 1
v 0.3 0.7 1
v 0.3 0.8 1
v 1 0.5 1
v 1 1.7 1
v -0.9 0.3 0.9
v -0.9 0.5 0.9
v 0.9 0.3 0.9
v 0.9 0.5 0.9
v -1.1 1.1 0.8
v -1.1 1.3 0.8
v -1 1.1 0.8
v -1 1.3 0.8
v -0.8 0.2 0.8
v -0.8 0.3 0.8
v 0.8 0.2 0.8
v 0.8 0.3 0.8
v 1 1.1 0.8
v 1 1.3 0.8
v 1.1 1.1 0.8
v 1.1 1.3 0.8
v -1.4 1.1 0.7
v -1.4 1.3 0.7
v -1.1 1.1 0.7
v -1.1 1.3 0.7
v -0.7 0.1 0.7
v -0.7 0.2 0.7
v 0.7 0.1 0.7
v 0.7 0.2 0.7
v 1.1 1.1 0.7
v 1.1 1.3 0.7
v 1.4 1.1 0.7
v 1.4 1.3 0.7
v -0.6 0 0.6
v -0.6 0.1 0.6
v 0.6 0 0.6
v 0.6 0.1 0.6
v -1.5 1.1 0.4
v -1.5 1.3 0.4
v -1.4 1.1 0.4
v -1.4 1.3 0.4
v 1.4 1.1 0.4
v 1.4 1.3 0.4
v 1.5 1.1 0.4
v 1.5 1.3 0.4
v -1.3 1.1 -0.3
v -1.3 1.3 -0.3
v -1 1.1 -0.3
v -1 1.3 -0.3
v 1 1.1 -0.3
v 1 1.3 -0.3
v 1.3 1.1 -0.3
v 1.3 1.3 -0.3
v -0.9 1.5 -0.8
v -0.9 1.7 -0.8
v 0.9 1.5 -0.8
v 0.9 1.7 -0.8
v -0.9 1.5 0.8
v -0.9 1.7 0.8
v 0.9 1.5 0.8
v 0.9 1.7 0.8
v -1.3 1.1 0.3
v -1.3 1.3 0.3
v -1 1.1 0.3
v -1 1.3 0.3
v 1 1.1 0.3
v 1 1.3 0.3
v 1.3 1.1 0.3
v 1.3 1.3 0.3
v -1.5 1.1 -0.4
v -1.5 1.3 -0.4
v -1.4 1.1 -0.4
v -1.4 1.3 -0.4
v 1.4 1.1 -0.4
v 1.4 1.3 -0.4
v 1.5 1.1 -0.4
v 1.5 1.3 -0.4
v -0.6 0 -0.6
v -0.6 0.1 -0.6
v 0.6 0 -0.6
v 0.6 0.1 -0.6
v -1.4 1.1 -0.7
v -1.4 1.3 -0.7
v -1.1 1.1 -0.7
v -1.1 1.3 -0.7
v -0.7 0.1 -0.7
v -0.7 0.2 -0.7
v 0.7 0.1 -0.7
v 0.7 0.2 -0.7
v 1.1 1.1 -0.7
v 1.1 1.3 -0.7
v 1.4 1.1 -0.7
v 1.4 1.3 -0.7
v -1.1 1.1 -0.8
v -1.1 1.3 -0.8
v -1 1.1 -0.8
v -1 1.3 -0.8
v -0.8 0.2 -0.8
v -0.8 0.3 -0.8
v 0.8 0.2 -0.8
v 0.8 0.3 -0.8
v 1 1.1 -0.8
v 1 1.3 -0.8
v 1.1 1.1 -0.8
v 1.1 1.3 -0.8
v -0.9 0.3 -0.9
v -0.9 0.5 -0.9
v 0.9 0.3 -0.9
v 0.9 0.5 -0.9
v -1 0.5 -1
v -1 1.7 -1
v 1 0.5 -1
v 1 1.7 -1
v -0.6 0 0.6
v 0.6 0 0.6
v -0.6 0 -0.6
v 0.6 0 -0.6
v -0.7 0.1 0.7
v 0.7 0.1 0.7
v -0.6 0.1 0.6
v 0.6 0.1 0.6
v -0.6 0.1 -0.6
v 0.6 0.1 -0.6
v -0.7 0.1 -0.7
v 0.7 0.1 -0.7
v -0.8 0.2 0.8
v 0.8 0.2 0.8
v -0.7 0.2 0.7
v 0.7 0.2 0.7
v -0.7 0.2 -0.7
v 0.7 0.2 -0.7
v -0.8 0.2 -0.8
v 0.8 0.2 -0.8
v -0.9 0.3 0.9
v 0.9 0.3 0.9
v -0.8 0.3 0.8
v 0.8 0.3 0.8
v -0.8 0.3 -0.8
v 0.8 0.3 -0.8
v -0.9 0.3 -0.9
v 0.9 0.3 -0.9
v -1 0.5 1
v 1 0.5 1
v -0.9 0.5 0.9
v 0.9 0.5 0.9
v -0.9 0.5 -0.9
v 0.9 0.5 -0.9
v -1 0.5 -1
v 1 0.5 -1
v -1.1 1.1 0.8
v -1 1.1 0.8
v 1 1.1 0.8
v 1.1 1.1 0.8
v -1.4 1.1 0.7
v -1.1 1.1 0.7
v 1.1 1.1 0.7
v 1.4 1.1 0.7
v -1.5 1.1 0.4
v -1.4 1.1 0.4
v 1.4 1.1 0.4
v 1.5 1.1 0.4
v -1.3 1.1 0.3
v -1 1.1 0.3
v 1 1.1 0.3
v 1.3 1.1 0.3
v -1.3 1.1 -0.3
v -1 1.1 -0.3
v 1 1.1 -0.3
v 1.3 1.1 -0.3
v -1.5 1.1 -0.4
v -1.4 1.1 -0.4
v 1.4 1.1 -0.4
v 1.5 1.1 -0.4
v -1.4 1.1 -0.7
v -1.1 1.1 -0.7
v 1.1 1.1 -0.7
v 1.4 1.1 -0.7
v -1.1 1.1 -0.8
v -1 1.1 -0.8
v 1 1.1 -0.8
v 1.1 1.1 -0.8
v -1.1 1.3 0.8
v -1 1.3 0.8
v 1 1.3 0.8
v 1.1 1.3 0.8
v -1.4 1.3 0.7
v -1.1 1.3 0.7
v 1.1 1.3 0.7
v 1.4 1.3 0.7
v -1.5 1.3 0.4
v -1.4 1.3 0.4
v 1.4 1.3 0.4
v 1.5 1.3 0.4
v -1.3 1.3 0.3
v -1 1.3 0.3
v 1 1.3 0.3
v 1.3 1.3 0.3
v -1.3 1.3 -0.3
v -1 1.3 -0.3
v 1 1.3 -0.3
v 1.3 1.3 -0.3
v -1.5 1.3 -0.4
v -1.4 1.3 -0.4
v 1.4 1.3 -0.4
v 1.5 1.3 -0.4
v -1.4 1.3 -0.7
v -1.1 1.3 -0.7
v 1.1 1.3 -0.7
v 1.4 1.3 -0.7
v -1.1 1.3 -0.8
v -1 1.3 -0.8
v 1 1.3 -0.8
v 1.1 1.3 -0.8
v -0.9 1.5 0.8
v 0.9 1.5 0.8
v -0.9 1.5 -0.8
v 0.9 1.5 -0.8
v -1 1.7 1
v 1 1.7 1
v -0.9 1.7 0.8
v 0.9 1.7 0.8
v -0.9 1.7 -0.8
v 0.9 1.7 -0.8
v -1 1.7 -1
v 1 1.7 -1

# faces
f 3/3/1 2/3/1 1/3/1
f 4/3/1 2/3/1 3/3/1
f 9/3/1 6/3/1 5/3/1
f 10/3/1 6/3/1 9/3/1
f 11/3/1 8/3/1 7/3/1
f 12/3/1 8/3/1 11/3/1
f 17/3/1 14/3/1 13/3/1
f 18/3/1 14/3/1 17/3/1
f 19/3/1 16/3/1 15/3/1
f 20/3/1 16/3/1 19/3/1
f 23/3/1 22/3/1 21/3/1
f 24/3/1 22/3/1 23/3/1
f 25/3/1 22/3/1 24/3/1
f 26/3/1 22/3/1 25/3/1
f 27/3/1 23/3/1 21/3/1
f 28/3/1 25/3/1 24/3/1
f 29/3/1 25/3/1 28/3/1
f 30/3/1 22/3/1 26/3/1
f 31/3/1 29/3/1 28/3/1
f 31/3/1 30/3/1 29/3/1
f 31/3/1 27/3/1 21/3/1
f 31/3/1 28/3/1 27/3/1
f 32/3/1 22/3/1 30/3/1
f 32/3/1 30/3/1 31/3/1
f 35/3/1 34/3/1 33/3/1
f 36/3/1 34/3/1 35/3/1
f 39/3/1 38/3/1 37/3/1
f 40/3/1 38/3/1 39/3/1
f 43/3/1 42/3/1 41/3/1
f 44/3/1 42/3/1 43/3/1
f 47/3/1 46/3/1 45/3/1
f 48/3/1 46/3/1 47/3/1
f 51/3/1 50/3/1 49/3/1
f 52/3/1 50/3/1 51/3/1
f 55/3/1 54/3/1 53/3/1
f 56/3/1 54/3/1 55/3/1
f 57/3/2 58/3/2 59/3/2
f 59/3/2 58/3/2 60/3/2
f 61/3/2 62/3/2 63/3/2
f 63/3/2 62/3/2 64/3/2
f 65/3/2 66/3/2 67/3/2
f 67/3/2 66/3/2 68/3/2
f 69/3/2 70/3/2 71/3/2
f 71/3/2 70/3/2 72/3/2
f 73/3/2 74/3/2 75/3/2
f 75/3/2 74/3/2 76/3/2
f 77/3/2 78/3/2 79/3/2
f 79/3/2 78/3/2 80/3/2
f 81/3/2 82/3/2 83/3/2
f 83/3/2 82/3/2 84/3/2
f 84/3/2 82/3/2 85/3/2
f 85/3/2 82/3/2 86/3/2
f 81/3/2 83/3/2 87/3/2
f 84/3/2 85/3/2 88/3/2
f 88/3/2 85/3/2 89/3/2
f 86/3/2 82/3/2 90/3/2
f 88/3/2 89/3/2 91/3/2
f 89/3/2 90/3/2 91/3/2
f 81/3/2 87/3/2 91/3/2
f 87/3/2 88/3/2 91/3/2
f 90/3/2 82/3/2 92/3/2
f 91/3/2 90/3/2 92/3/2
f 93/3/2 94/3/2 97/3/2
f 97/3/2 94/3/2 98/3/2
f 95/3/2 96/3/2 99/3/2
f 99/3/2 96/3/2 100/3/2
f 101/3/2 102/3/2 105/3/2
f 105/3/2 102/3/2 106/3/2
f 103/3/2 104/3/2 107/3/2
f 107/3/2 104/3/2 108/3/2
f 109/3/2 110/3/2 111/3/2
f 111/3/2 110/3/2 112/3/2
f 115/3/3 114/3/3 113/3/3
f 116/3/3 114/3/3 115/3/3
f 117/3/3 115/3/3 113/3/3
f 117/2/3 116/2/3 115/2/3
f 118/3/3 114/3/3 116/3/3
f 118/2/3 116/2/3 117/2/3
f 119/3/3 114/3/3 118/3/3
f 120/3/3 114/3/3 119/3/3
f 121/3/3 114/3/3 120/3/3
f 122/3/3 118/3/3 117/3/3
f 122/2/3 119/2/3 118/2/3
f 123/3/3 120/3/3 119/3/3
f 123/2/3 119/2/3 122/2/3
f 124/3/3 120/3/3 123/3/3
f 125/3/3 120/3/3 124/3/3
f 126/2/3 121/2/3 120/2/3
f 126/3/3 120/3/3 125/3/3
f 127/3/3 114/3/3 121/3/3
f 127/2/3 121/2/3 126/2/3
f 128/3/3 123/3/3 122/3/3
f 128/2/3 124/2/3 123/2/3
f 129/3/3 125/3/3 124/3/3
f 129/2/3 124/2/3 128/2/3
f 130/2/3 126/2/3 125/2/3
f 130/3/3 125/3/3 129/3/3
f 131/3/3 127/3/3 126/3/3
f 131/2/3 126/2/3 130/2/3
f 132/3/3 129/3/3 128/3/3
f 132/3/3 128/3/3 122/3/3
f 133/2/3 130/2/3 129/2/3
f 133/3/3 129/3/3 132/3/3
f 134/3/3 131/3/3 130/3/3
f 134/2/3 130/2/3 133/2/3
f 135/3/3 127/3/3 131/3/3
f 135/3/3 131/3/3 134/3/3
f 136/3/3 122/3/3 117/3/3
f 136/3/3 132/3/3 122/3/3
f 137/2/3 133/2/3 132/2/3
f 137/3/3 132/3/3 136/3/3
f 138/3/3 134/3/3 133/3/3
f 138/2/3 133/2/3 137/2/3
f 139/2/3 135/2/3 134/2/3
f 139/3/3 134/3/3 138/3/3
f 140/3/3 127/3/3 135/3/3
f 140/2/3 135/2/3 139/2/3
f 141/3/3 114/3/3 127/3/3
f 141/3/3 127/3/3 140/3/3
f 142/3/3 117/3/3 113/3/3
f 142/3/3 136/3/3 117/3/3
f 143/2/3 137/2/3 136/2/3
f 143/3/3 136/3/3 142/3/3
f 144/3/3 139/3/3 138/3/3
f 144/2/3 137/2/3 143/2/3
f 144/3/3 140/3/3 139/3/3
f 144/3/3 138/3/3 137/3/3
f 145/2/3 141/2/3 140/2/3
f 145/3/3 140/3/3 144/3/3
f 146/3/3 114/3/3 141/3/3
f 146/2/3 141/2/3 145/2/3
f 147/3/3 142/3/3 113/3/3
f 147/2/3 143/2/3 142/2/3
f 148/3/3 145/3/3 144/3/3
f 148/2/3 143/2/3 147/2/3
f 148/3/3 144/3/3 143/3/3
f 148/3/3 146/3/3 145/3/3
f 149/3/3 147/3/3 113/3/3
f 149/3/3 148/3/3 147/3/3
f 150/3/3 146/3/3 148/3/3
f 150/3/3 148/3/3 149/3/3
f 150/3/3 114/3/3 146/3/3
f 153/3/3 152/3/3 151/3/3
f 154/3/3 152/3/3 153/3/3
f 157/3/3 156/3/3 155/3/3
f 158/3/3 156/3/3 157/3/3
f 161/3/3 160/3/3 159/3/3
f 162/3/3 160/3/3 161/3/3
f 165/3/3 164/3/3 163/3/3
f 166/3/3 164/3/3 165/3/3
f 169/3/3 168/3/3 167/3/3
f 170/3/3 168/3/3 169/3/3
f 173/3/3 172/3/3 171/3/3
f 174/3/3 172/3/3 173/3/3
f 177/3/3 176/3/3 175/3/3
f 178/3/3 176/3/3 177/3/3
f 181/3/3 180/3/3 179/3/3
f 182/3/3 180/3/3 181/3/3
f 185/3/3 184/3/3 183/3/3
f 186/3/3 184/3/3 185/3/3
f 189/3/3 188/3/3 187/3/3
f 190/3/3 188/3/3 189/3/3
f 193/3/3 192/3/3 191/3/3
f 194/3/3 192/3/3 193/3/3
f 197/3/3 196/3/3 195/3/3
f 198/3/3 196/3/3 197/3/3
f 201/3/3 200/3/3 199/3/3
f 202/3/3 200/3/3 201/3/3
f 203/3/4 204/3/4 205/3/4
f 205/3/4 204/3/4 206/3/4
f 207/3/4 208/3/4 209/3/4
f 209/3/4 208/3/4 210/3/4
f 211/3/4 212/3/4 213/3/4
f 213/3/4 212/3/4 214/3/4
f 215/3/4 216/3/4 217/3/4
f 217/3/4 216/3/4 218/3/4
f 219/3/4 220/3/4 221/3/4
f 221/3/4 220/3/4 222/3/4
f 223/3/4 224/3/4 225/3/4
f 225/3/4 224/3/4 226/3/4
f 227/3/4 228/3/4 229/3/4
f 229/3/4 228/3/4 230/3/4
f 231/3/4 232/3/4 233/3/4
f 233/3/4 232/3/4 234/3/4
f 235/3/4 236/3/4 237/3/4
f 237/3/4 236/3/4 238/3/4
f 239/3/4 240/3/4 241/3/4
f 241/3/4 240/3/4 242/3/4
f 243/3/4 244/3/4 245/3/4
f 245/3/4 244/3/4 246/3/4
f 247/3/4 248/3/4 249/3/4
f 249/3/4 248/3/4 250/3/4
f 251/3/4 252/3/4 253/3/4
f 253/3/4 252/3/4 254/3/4
f 255/3/4 256/3/4 257/3/4
f 257/3/4 256/3/4 258/3/4
f 261/3/5 260/3/5 259/3/5
f 262/3/5 260/3/5 261/3/5
f 265/3/5 264/3/5 263/3/5
f 266/3/5 264/3/5 265/3/5
f 267/3/5 265/3/5 263/3/5
f 268/3/5 264/3/5 266/3/5
f 269/3/5 267/3/5 263/3/5
f 269/3/5 268/3/5 267/3/5
f 270/3/5 264/3/5 268/3/5
f 270/3/5 268/3/5 269/3/5
f 273/3/5 272/3/5 271/3/5
f 274/3/5 272/3/5 273/3/5
f 275/3/5 273/3/5 271/3/5
f 276/3/5 272/3/5 274/3/5
f 277/3/5 275/3/5 271/3/5
f 277/3/5 276/3/5 275/3/5
f 278/3/5 272/3/5 276/3/5
f 278/3/5 276/3/5 277/3/5
f 281/3/5 280/3/5 279/3/5
f 282/3/5 280/3/5 281/3/5
f 283/3/5 281/3/5 279/3/5
f 284/3/5 280/3/5 282/3/5
f 285/3/5 283/3/5 279/3/5
f 285/3/5 284/3/5 283/3/5
f 286/3/5 280/3/5 284/3/5
f 286/3/5 284/3/5 285/3/5
f 289/3/5 288/3/5 287/3/5
f 290/3/5 288/3/5 289/3/5
f 291/3/5 289/3/5 287/3/5
f 292/3/5 288/3/5 290/3/5
f 293/3/5 291/3/5 287/3/5
f 293/3/5 292/3/5 291/3/5
f 294/3/5 288/3/5 292/3/5
f 294/3/5 292/3/5 293/3/5
f 300/3/5 296/3/5 295/3/5
f 301/3/5 298/3/5 297/3/5
f 304/3/5 300/3/5 299/3/5
f 305/3/5 302/3/5 301/3/5
f 307/3/5 304/3/5 303/3/5
f 307/3/5 300/3/5 304/3/5
f 308/3/5 296/3/5 300/3/5
f 308/3/5 300/3/5 307/3/5
f 309/3/5 306/3/5 305/3/5
f 309/3/5 301/3/5 297/3/5
f 309/3/5 305/3/5 301/3/5
f 310/3/5 306/3/5 309/3/5
f 311/3/5 307/3/5 303/3/5
f 314/3/5 306/3/5 310/3/5
f 315/3/5 312/3/5 311/3/5
f 315/3/5 311/3/5 303/3/5
f 316/3/5 312/3/5 315/3/5
f 317/3/5 314/3/5 313/3/5
f 317/3/5 306/3/5 314/3/5
f 318/3/5 306/3/5 317/3/5
f 319/3/5 312/3/5 316/3/5
f 320/3/5 312/3/5 319/3/5
f 321/3/5 317/3/5 313/3/5
f 322/3/5 317/3/5 321/3/5
f 323/3/5 312/3/5 320/3/5
f 324/3/5 312/3/5 323/3/5
f 325/3/5 321/3/5 313/3/5
f 326/3/5 321/3/5 325/3/5
f 327/3/6 328/3/6 332/3/6
f 329/3/6 330/3/6 333/3/6
f 331/3/6 332/3/6 336/3/6
f 333/3/6 334/3/6 337/3/6
f 335/3/6 336/3/6 339/3/6
f 336/3/6 332/3/6 339/3/6
f 332/3/6 328/3/6 340/3/6
f 339/3/6 332/3/6 340/3/6
f 337/3/6 338/3/6 341/3/6
f 329/3/6 333/3/6 341/3/6
f 333/3/6 337/3/6 341/3/6
f 341/3/6 338/3/6 342/3/6
f 335/3/6 339/3/6 343/3/6
f 342/3/6 338/3/6 346/3/6
f 343/3/6 344/3/6 347/3/6
f 335/3/6 343/3/6 347/3/6
f 347/3/6 344/3/6 348/3/6
f 345/3/6 346/3/6 349/3/6
f 346/3/6 338/3/6 349/3/6
f 349/3/6 338/3/6 350/3/6
f 348/3/6 344/3/6 351/3/6
f 351/3/6 344/3/6 352/3/6
f 345/3/6 349/3/6 353/3/6
f 353/3/6 349/3/6 354/3/6
f 352/3/6 344/3/6 355/3/6
f 355/3/6 344/3/6 356/3/6
f 345/3/6 353/3/6 357/3/6
f 357/3/6 353/3/6 358/3/6
f 359/2/6 360/2/6 361/2/6
f 361/2/6 360/2/6 362/2/6
f 363/3/6 364/3/6 365/3/6
f 365/3/6 364/3/6 366/3/6
f 363/3/6 365/3/6 367/3/6
f 366/3/6 364/3/6 368/3/6
f 363/3/6 367/3/6 369/3/6
f 367/3/6 368/3/6 369/3/6
f 368/3/6 364/3/6 370/3/6
f 369/3/6 368/3/6 370/3/6
