# MagicaVoxel @ Ephtracy

# group
o 

# material
mtllib pinchitos front Rleg.mtl
usemtl palette

# normals
vn -1 0 0
vn 1 0 0
vn 0 0 1
vn 0 0 -1
vn 0 -1 0
vn 0 1 0

# texcoords
vt 0.255859 0.5
vt 0.869141 0.5
vt 0.873047 0.5

# verts
v 0.2 1.9 0.9
v 0.2 1.9 0.6
v 0.2 2 0.9
v 0.2 2 0.8
v 0.2 2 0.6
v 0.2 2.1 0.7
v 0.2 2.1 0.6
v 0.2 2.1 0.5
v 0.2 2.3 0.8
v 0.2 2.3 0.7
v 0.2 2.7 0.6
v 0.2 2.7 0.5
v 0.2 2.8 0.7
v 0.2 2.8 0.6
v 0.2 2.8 0.5
v 0.3 2.8 0.7
v 0.3 2.8 0.6
v 0.3 2.8 0.5
v 0.3 2.9 0.7
v 0.3 2.9 0.5
v 0.4 1.9 0.9
v 0.4 1.9 0.6
v 0.4 2 0.9
v 0.4 2 0.8
v 0.4 2 0.6
v 0.4 2.1 0.8
v 0.4 2.1 0.6
v 0.4 2.1 0.5
v 0.4 2.3 0.8
v 0.4 2.3 0.7
v 0.4 2.7 0.7
v 0.4 2.7 0.6
v 0.4 2.8 0.6
v 0.4 2.8 0.5
v 0.4 2.9 0.7
v 0.4 2.9 0.5
v 0.2 1.9 0.9
v 0.2 2 0.9
v 0.4 1.9 0.9
v 0.4 2 0.9
v 0.2 2 0.8
v 0.2 2.3 0.8
v 0.3 2.1 0.8
v 0.3 2.3 0.8
v 0.4 2 0.8
v 0.4 2.1 0.8
v 0.4 2.3 0.8
v 0.2 2.3 0.7
v 0.2 2.8 0.7
v 0.3 2.3 0.7
v 0.3 2.7 0.7
v 0.3 2.8 0.7
v 0.3 2.9 0.7
v 0.4 2.3 0.7
v 0.4 2.7 0.7
v 0.4 2.9 0.7
v 0.2 1.9 0.6
v 0.2 2 0.6
v 0.2 2.1 0.6
v 0.4 1.9 0.6
v 0.4 2 0.6
v 0.4 2.1 0.6
v 0.2 2.1 0.5
v 0.2 2.7 0.5
v 0.2 2.8 0.5
v 0.3 2.7 0.5
v 0.3 2.8 0.5
v 0.3 2.9 0.5
v 0.4 2.1 0.5
v 0.4 2.8 0.5
v 0.4 2.9 0.5
v 0.2 1.9 0.9
v 0.4 1.9 0.9
v 0.2 1.9 0.6
v 0.4 1.9 0.6
v 0.2 2.1 0.6
v 0.4 2.1 0.6
v 0.2 2.1 0.5
v 0.4 2.1 0.5
v 0.2 2 0.9
v 0.4 2 0.9
v 0.2 2 0.8
v 0.4 2 0.8
v 0.2 2.3 0.8
v 0.3 2.3 0.8
v 0.4 2.3 0.8
v 0.2 2.3 0.7
v 0.3 2.3 0.7
v 0.4 2.3 0.7
v 0.2 2.8 0.7
v 0.3 2.8 0.7
v 0.2 2.8 0.6
v 0.3 2.8 0.6
v 0.2 2.8 0.5
v 0.3 2.8 0.5
v 0.3 2.9 0.7
v 0.4 2.9 0.7
v 0.3 2.9 0.5
v 0.4 2.9 0.5

# faces
f 3/3/1 2/3/1 1/3/1
f 4/3/1 2/3/1 3/3/1
f 5/3/1 2/3/1 4/3/1
f 6/2/1 5/2/1 4/2/1
f 7/2/1 5/2/1 6/2/1
f 9/2/1 6/2/1 4/2/1
f 10/1/1 7/1/1 6/1/1
f 10/2/1 6/2/1 9/2/1
f 10/1/1 8/1/1 7/1/1
f 11/1/1 8/1/1 10/1/1
f 12/1/1 8/1/1 11/1/1
f 13/1/1 11/1/1 10/1/1
f 14/2/1 12/2/1 11/2/1
f 14/1/1 11/1/1 13/1/1
f 15/2/1 12/2/1 14/2/1
f 19/2/1 17/2/1 16/2/1
f 19/2/1 18/2/1 17/2/1
f 20/2/1 18/2/1 19/2/1
f 21/3/2 22/3/2 23/3/2
f 23/3/2 22/3/2 24/3/2
f 24/3/2 22/3/2 25/3/2
f 24/2/2 25/2/2 26/2/2
f 26/2/2 25/2/2 27/2/2
f 26/1/2 27/1/2 29/1/2
f 27/1/2 28/1/2 29/1/2
f 29/1/2 28/1/2 30/1/2
f 30/1/2 28/1/2 31/1/2
f 31/1/2 28/1/2 32/1/2
f 31/2/2 32/2/2 33/2/2
f 32/1/2 28/1/2 33/1/2
f 33/1/2 28/1/2 34/1/2
f 31/2/2 33/2/2 35/2/2
f 33/2/2 34/2/2 35/2/2
f 35/2/2 34/2/2 36/2/2
f 39/3/3 38/3/3 37/3/3
f 40/3/3 38/3/3 39/3/3
f 43/2/3 42/2/3 41/2/3
f 44/2/3 42/2/3 43/2/3
f 45/2/3 43/2/3 41/2/3
f 46/1/3 44/1/3 43/1/3
f 46/2/3 43/2/3 45/2/3
f 47/1/3 44/1/3 46/1/3
f 50/1/3 49/1/3 48/1/3
f 51/1/3 49/1/3 50/1/3
f 52/1/3 49/1/3 51/1/3
f 54/1/3 51/1/3 50/1/3
f 55/2/3 53/2/3 52/2/3
f 55/1/3 51/1/3 54/1/3
f 55/2/3 52/2/3 51/2/3
f 56/2/3 53/2/3 55/2/3
f 57/3/4 58/3/4 60/3/4
f 58/2/4 59/2/4 61/2/4
f 60/3/4 58/3/4 61/3/4
f 61/2/4 59/2/4 62/2/4
f 63/1/4 64/1/4 66/1/4
f 64/2/4 65/2/4 66/2/4
f 66/2/4 65/2/4 67/2/4
f 63/1/4 66/1/4 69/1/4
f 66/1/4 67/1/4 69/1/4
f 67/2/4 68/2/4 70/2/4
f 69/1/4 67/1/4 70/1/4
f 70/2/4 68/2/4 71/2/4
f 74/3/5 73/3/5 72/3/5
f 75/3/5 73/3/5 74/3/5
f 78/1/5 77/1/5 76/1/5
f 79/1/5 77/1/5 78/1/5
f 80/3/6 81/3/6 82/3/6
f 82/3/6 81/3/6 83/3/6
f 84/2/6 85/2/6 87/2/6
f 85/1/6 86/1/6 88/1/6
f 87/2/6 85/2/6 88/2/6
f 88/1/6 86/1/6 89/1/6
f 90/1/6 91/1/6 92/1/6
f 92/1/6 91/1/6 93/1/6
f 92/2/6 93/2/6 94/2/6
f 94/2/6 93/2/6 95/2/6
f 96/2/6 97/2/6 98/2/6
f 98/2/6 97/2/6 99/2/6
