# MagicaVoxel @ Ephtracy

# group
o 

# material
mtllib Potato projectile.mtl
usemtl palette

# normals
vn -1 0 0
vn 1 0 0
vn 0 0 1
vn 0 0 -1
vn 0 -1 0
vn 0 1 0

# texcoords
vt 0.00195313 0.5
vt 0.0449219 0.5
vt 0.369141 0.5
vt 0.681641 0.5

# verts
v -0.4 0 0.4
v -0.4 0 -0.4
v -0.4 3.4 0.4
v -0.4 3.4 0.1
v -0.4 3.6 0.4
v -0.4 3.6 0.3
v -0.4 3.8 0.4
v -0.4 3.8 0.3
v -0.4 3.8 0.1
v -0.4 3.8 -0.4
v 0.4 0 0.4
v 0.4 0 -0.4
v 0.4 3.4 0.4
v 0.4 3.4 0.1
v 0.4 3.6 0.4
v 0.4 3.6 0.3
v 0.4 3.8 0.4
v 0.4 3.8 0.3
v 0.4 3.8 0.1
v 0.4 3.8 -0.4
v -0.4 0 0.4
v -0.4 3.4 0.4
v -0.4 3.6 0.4
v -0.4 3.8 0.4
v -0.2 3.4 0.4
v -0.2 3.6 0.4
v -0.2 3.8 0.4
v -0.1 3 0.4
v -0.1 3.2 0.4
v 0.1 3 0.4
v 0.1 3.2 0.4
v 0.2 3.4 0.4
v 0.2 3.6 0.4
v 0.2 3.8 0.4
v 0.4 0 0.4
v 0.4 3.4 0.4
v 0.4 3.6 0.4
v 0.4 3.8 0.4
v -0.4 0 -0.4
v -0.4 3.8 -0.4
v 0.4 0 -0.4
v 0.4 3.8 -0.4
v -0.4 0 0.4
v 0.4 0 0.4
v -0.4 0 -0.4
v 0.4 0 -0.4
v -0.4 3.8 0.4
v -0.2 3.8 0.4
v 0.2 3.8 0.4
v 0.4 3.8 0.4
v -0.4 3.8 0.3
v -0.2 3.8 0.3
v 0.2 3.8 0.3
v 0.4 3.8 0.3
v -0.4 3.8 0.1
v -0.2 3.8 0.1
v 0.2 3.8 0.1
v 0.4 3.8 0.1
v -0.4 3.8 -0.4
v 0.4 3.8 -0.4

# faces
f 3/2/1 2/2/1 1/2/1
f 4/2/1 2/2/1 3/2/1
f 5/1/1 4/1/1 3/1/1
f 6/1/1 4/1/1 5/1/1
f 7/4/1 6/4/1 5/4/1
f 8/1/1 4/1/1 6/1/1
f 8/4/1 6/4/1 7/4/1
f 9/2/1 2/2/1 4/2/1
f 9/1/1 4/1/1 8/1/1
f 10/2/1 2/2/1 9/2/1
f 11/2/2 12/2/2 13/2/2
f 13/2/2 12/2/2 14/2/2
f 13/1/2 14/1/2 15/1/2
f 15/1/2 14/1/2 16/1/2
f 15/4/2 16/4/2 17/4/2
f 16/1/2 14/1/2 18/1/2
f 17/4/2 16/4/2 18/4/2
f 14/2/2 12/2/2 19/2/2
f 18/1/2 14/1/2 19/1/2
f 19/2/2 12/2/2 20/2/2
f 25/2/3 22/2/3 21/2/3
f 25/1/3 23/1/3 22/1/3
f 26/4/3 24/4/3 23/4/3
f 26/1/3 23/1/3 25/1/3
f 27/4/3 24/4/3 26/4/3
f 28/2/3 25/2/3 21/2/3
f 28/2/3 26/2/3 25/2/3
f 28/2/3 27/2/3 26/2/3
f 29/2/3 27/2/3 28/2/3
f 30/2/3 28/2/3 21/2/3
f 30/3/3 29/3/3 28/3/3
f 31/2/3 27/2/3 29/2/3
f 31/3/3 29/3/3 30/3/3
f 32/2/3 31/2/3 30/2/3
f 32/2/3 27/2/3 31/2/3
f 33/2/3 27/2/3 32/2/3
f 34/2/3 27/2/3 33/2/3
f 35/2/3 30/2/3 21/2/3
f 35/2/3 32/2/3 30/2/3
f 36/1/3 33/1/3 32/1/3
f 36/2/3 32/2/3 35/2/3
f 37/4/3 34/4/3 33/4/3
f 37/1/3 33/1/3 36/1/3
f 38/4/3 34/4/3 37/4/3
f 39/2/4 40/2/4 41/2/4
f 41/2/4 40/2/4 42/2/4
f 45/2/5 44/2/5 43/2/5
f 46/2/5 44/2/5 45/2/5
f 47/4/6 48/4/6 51/4/6
f 48/2/6 49/2/6 52/2/6
f 51/4/6 48/4/6 52/4/6
f 49/4/6 50/4/6 53/4/6
f 52/2/6 49/2/6 53/2/6
f 53/4/6 50/4/6 54/4/6
f 51/1/6 52/1/6 55/1/6
f 52/2/6 53/2/6 56/2/6
f 55/1/6 52/1/6 56/1/6
f 53/1/6 54/1/6 57/1/6
f 56/2/6 53/2/6 57/2/6
f 57/1/6 54/1/6 58/1/6
f 55/2/6 56/2/6 59/2/6
f 56/2/6 57/2/6 59/2/6
f 57/2/6 58/2/6 59/2/6
f 59/2/6 58/2/6 60/2/6
