# MagicaVoxel @ Ephtracy

# group
o 

# material
mtllib Portable drink changecolor.mtl
usemtl palette

# normals
vn -1 0 0
vn 1 0 0
vn 0 0 1
vn 0 0 -1
vn 0 -1 0
vn 0 1 0

# texcoords
vt 0.279297 0.5
vt 0.853516 0.5

# verts
v -1 2.2 1.3
v -1 2.2 1.2
v -1 2.2 1
v -1 2.2 0.9
v -1 2.3 1.3
v -1 2.3 1.2
v -1 2.3 1.1
v -1 2.3 1
v -1 2.3 0.9
v -1 2.4 1.2
v -1 2.4 1.1
v -1 2.4 1
v -1 2.5 1.3
v -1 2.5 1.2
v -1 2.5 1.1
v -1 2.5 1
v -1 2.5 0.9
v -1 2.6 1.3
v -1 2.6 1.2
v -1 2.6 1
v -1 2.6 0.9
v -0.5 3 -0.0999999
v -0.5 3 -1
v -0.5 3 -1.5
v -0.5 3 -1.6
v -0.5 3 -1.7
v -0.5 3 -1.8
v -0.5 3.1 -0.0999999
v -0.5 3.1 -1
v -0.5 3.1 -1.5
v -0.5 3.1 -1.6
v -0.5 3.1 -1.7
v -0.5 3.1 -1.8
v -0.4 3 -1.4
v -0.4 3 -1.5
v -0.4 3.1 -1.4
v -0.4 3.1 -1.5
v -0.3 3 -0.8
v -0.3 3 -0.9
v -0.3 3.1 -0.8
v -0.3 3.1 -0.9
v -0.2 2.1 5.3
v -0.2 2.1 2.3
v -0.2 2.3 5.1
v -0.2 2.3 2.3
v -0.2 3 -1.4
v -0.2 3 -1.6
v -0.2 3.1 -1.4
v -0.2 3.1 -1.6
v -0.2 3.8 5.3
v -0.2 3.8 5.1
v -0.1 3 -0.0999999
v -0.1 3 -0.2
v -0.1 3 -0.5
v -0.1 3 -0.6
v -0.1 3.1 -0.0999999
v -0.1 3.1 -0.2
v -0.1 3.1 -0.5
v -0.1 3.1 -0.6
v 0 3 -0.2
v 0 3 -0.5
v 0 3 -0.6
v 0 3 -1
v 0 3 -1.4
v 0 3 -1.5
v 0 3.1 -0.2
v 0 3.1 -0.5
v 0 3.1 -0.6
v 0 3.1 -1
v 0 3.1 -1.4
v 0 3.1 -1.5
v 0.1 2.1 5.3
v 0.1 2.1 2.3
v 0.1 2.3 5.1
v 0.1 2.3 2.3
v 0.1 3 -1.5
v 0.1 3 -1.6
v 0.1 3.1 -1.5
v 0.1 3.1 -1.6
v 0.1 3.8 5.3
v 0.1 3.8 5.1
v 0.3 3 -0.0999999
v 0.3 3 -0.2
v 0.3 3 -0.9
v 0.3 3 -1
v 0.3 3.1 -0.0999999
v 0.3 3.1 -0.2
v 0.3 3.1 -0.9
v 0.3 3.1 -1
v 0.6 3 -0.5
v 0.6 3 -0.9
v 0.6 3.1 -0.5
v 0.6 3.1 -0.9
v 0.9 2.2 1.3
v 0.9 2.2 1.2
v 0.9 2.2 1
v 0.9 2.2 0.9
v 0.9 2.3 1.3
v 0.9 2.3 1.2
v 0.9 2.3 1.1
v 0.9 2.3 1
v 0.9 2.3 0.9
v 0.9 2.4 1.2
v 0.9 2.4 1.1
v 0.9 2.4 1
v 0.9 2.5 1.3
v 0.9 2.5 1.2
v 0.9 2.5 1.1
v 0.9 2.5 1
v 0.9 2.5 0.9
v 0.9 2.6 1.3
v 0.9 2.6 1.2
v 0.9 2.6 1
v 0.9 2.6 0.9
v -0.9 2.2 1.3
v -0.9 2.2 1.2
v -0.9 2.2 1
v -0.9 2.2 0.9
v -0.9 2.3 1.3
v -0.9 2.3 1.2
v -0.9 2.3 1.1
v -0.9 2.3 1
v -0.9 2.3 0.9
v -0.9 2.4 1.2
v -0.9 2.4 1.1
v -0.9 2.4 1
v -0.9 2.5 1.3
v -0.9 2.5 1.2
v -0.9 2.5 1.1
v -0.9 2.5 1
v -0.9 2.5 0.9
v -0.9 2.6 1.3
v -0.9 2.6 1.2
v -0.9 2.6 1
v -0.9 2.6 0.9
v -0.4 3 -0.0999999
v -0.4 3 -0.9
v -0.4 3 -1.5
v -0.4 3 -1.6
v -0.4 3.1 -0.0999999
v -0.4 3.1 -0.9
v -0.4 3.1 -1.5
v -0.4 3.1 -1.6
v -0.3 3 -0.9
v -0.3 3 -1
v -0.3 3 -1.4
v -0.3 3 -1.5
v -0.3 3.1 -0.9
v -0.3 3.1 -1
v -0.3 3.1 -1.4
v -0.3 3.1 -1.5
v -0.2 3 -0.8
v -0.2 3 -0.9
v -0.2 3.1 -0.8
v -0.2 3.1 -0.9
v -0.1 2.1 5.3
v -0.1 2.1 2.3
v -0.1 2.3 5.1
v -0.1 2.3 2.3
v -0.1 3 -1.4
v -0.1 3 -1.6
v -0.1 3.1 -1.4
v -0.1 3.1 -1.6
v -0.1 3.8 5.3
v -0.1 3.8 5.1
v 0.1 3 -0.2
v 0.1 3 -0.5
v 0.1 3 -0.6
v 0.1 3 -0.9
v 0.1 3 -1.4
v 0.1 3 -1.5
v 0.1 3.1 -0.2
v 0.1 3.1 -0.5
v 0.1 3.1 -0.6
v 0.1 3.1 -0.9
v 0.1 3.1 -1.4
v 0.1 3.1 -1.5
v 0.2 2.1 5.3
v 0.2 2.1 2.3
v 0.2 2.3 5.1
v 0.2 2.3 2.3
v 0.2 3 -0.0999999
v 0.2 3 -0.2
v 0.2 3 -0.5
v 0.2 3 -0.6
v 0.2 3 -0.9
v 0.2 3 -1
v 0.2 3 -1.5
v 0.2 3 -1.6
v 0.2 3 -1.7
v 0.2 3 -1.8
v 0.2 3.1 -0.0999999
v 0.2 3.1 -0.2
v 0.2 3.1 -0.5
v 0.2 3.1 -0.6
v 0.2 3.1 -0.9
v 0.2 3.1 -1
v 0.2 3.1 -1.5
v 0.2 3.1 -1.6
v 0.2 3.1 -1.7
v 0.2 3.1 -1.8
v 0.2 3.8 5.3
v 0.2 3.8 5.1
v 0.5 3 -0.0999999
v 0.5 3 -0.2
v 0.5 3.1 -0.0999999
v 0.5 3.1 -0.2
v 0.7 3 -0.5
v 0.7 3 -1
v 0.7 3.1 -0.5
v 0.7 3.1 -1
v 1 2.2 1.3
v 1 2.2 1.2
v 1 2.2 1
v 1 2.2 0.9
v 1 2.3 1.3
v 1 2.3 1.2
v 1 2.3 1.1
v 1 2.3 1
v 1 2.3 0.9
v 1 2.4 1.2
v 1 2.4 1.1
v 1 2.4 1
v 1 2.5 1.3
v 1 2.5 1.2
v 1 2.5 1.1
v 1 2.5 1
v 1 2.5 0.9
v 1 2.6 1.3
v 1 2.6 1.2
v 1 2.6 1
v 1 2.6 0.9
v -0.2 2.1 5.3
v -0.2 3.8 5.3
v -0.1 2.1 5.3
v -0.1 3.8 5.3
v 0.1 2.1 5.3
v 0.1 3.8 5.3
v 0.2 2.1 5.3
v 0.2 3.8 5.3
v -1 2.2 1.3
v -1 2.3 1.3
v -1 2.5 1.3
v -1 2.6 1.3
v -0.9 2.2 1.3
v -0.9 2.3 1.3
v -0.9 2.5 1.3
v -0.9 2.6 1.3
v 0.9 2.2 1.3
v 0.9 2.3 1.3
v 0.9 2.5 1.3
v 0.9 2.6 1.3
v 1 2.2 1.3
v 1 2.3 1.3
v 1 2.5 1.3
v 1 2.6 1.3
v -1 2.4 1.2
v -1 2.5 1.2
v -0.9 2.4 1.2
v -0.9 2.5 1.2
v 0.9 2.4 1.2
v 0.9 2.5 1.2
v 1 2.4 1.2
v 1 2.5 1.2
v -1 2.3 1.1
v -1 2.4 1.1
v -0.9 2.3 1.1
v -0.9 2.4 1.1
v 0.9 2.3 1.1
v 0.9 2.4 1.1
v 1 2.3 1.1
v 1 2.4 1.1
v -1 2.2 1
v -1 2.3 1
v -1 2.5 1
v -1 2.6 1
v -0.9 2.2 1
v -0.9 2.3 1
v -0.9 2.5 1
v -0.9 2.6 1
v 0.9 2.2 1
v 0.9 2.3 1
v 0.9 2.5 1
v 0.9 2.6 1
v 1 2.2 1
v 1 2.3 1
v 1 2.5 1
v 1 2.6 1
v -0.5 3 -0.0999999
v -0.5 3.1 -0.0999999
v -0.4 3 -0.0999999
v -0.4 3.1 -0.0999999
v -0.1 3 -0.0999999
v -0.1 3.1 -0.0999999
v 0.2 3 -0.0999999
v 0.2 3.1 -0.0999999
v 0.3 3 -0.0999999
v 0.3 3.1 -0.0999999
v 0.5 3 -0.0999999
v 0.5 3.1 -0.0999999
v -0.1 3 -0.5
v -0.1 3.1 -0.5
v 0 3 -0.5
v 0 3.1 -0.5
v 0.1 3 -0.5
v 0.1 3.1 -0.5
v 0.2 3 -0.5
v 0.2 3.1 -0.5
v 0.6 3 -0.5
v 0.6 3.1 -0.5
v 0.7 3 -0.5
v 0.7 3.1 -0.5
v -0.3 3 -0.8
v -0.3 3.1 -0.8
v -0.2 3 -0.8
v -0.2 3.1 -0.8
v -0.4 3 -0.9
v -0.4 3.1 -0.9
v -0.3 3 -0.9
v -0.3 3.1 -0.9
v 0.1 3 -0.9
v 0.1 3.1 -0.9
v 0.2 3 -0.9
v 0.2 3.1 -0.9
v 0.3 3 -0.9
v 0.3 3.1 -0.9
v 0.6 3 -0.9
v 0.6 3.1 -0.9
v -0.4 3 -1.4
v -0.4 3.1 -1.4
v -0.3 3 -1.4
v -0.3 3.1 -1.4
v -0.2 3 -1.4
v -0.2 3.1 -1.4
v -0.1 3 -1.4
v -0.1 3.1 -1.4
v 0 3 -1.4
v 0 3.1 -1.4
v 0.1 3 -1.4
v 0.1 3.1 -1.4
v -0.5 3 -1.5
v -0.5 3.1 -1.5
v -0.4 3 -1.5
v -0.4 3.1 -1.5
v 0.1 3 -1.5
v 0.1 3.1 -1.5
v 0.2 3 -1.5
v 0.2 3.1 -1.5
v -0.5 3 -1.7
v -0.5 3.1 -1.7
v 0.2 3 -1.7
v 0.2 3.1 -1.7
v -0.2 2.3 5.1
v -0.2 3.8 5.1
v -0.1 2.3 5.1
v -0.1 3.8 5.1
v 0.1 2.3 5.1
v 0.1 3.8 5.1
v 0.2 2.3 5.1
v 0.2 3.8 5.1
v -0.2 2.1 2.3
v -0.2 2.3 2.3
v -0.1 2.1 2.3
v -0.1 2.3 2.3
v 0.1 2.1 2.3
v 0.1 2.3 2.3
v 0.2 2.1 2.3
v 0.2 2.3 2.3
v -1 2.2 1.2
v -1 2.3 1.2
v -1 2.5 1.2
v -1 2.6 1.2
v -0.9 2.2 1.2
v -0.9 2.3 1.2
v -0.9 2.5 1.2
v -0.9 2.6 1.2
v 0.9 2.2 1.2
v 0.9 2.3 1.2
v 0.9 2.5 1.2
v 0.9 2.6 1.2
v 1 2.2 1.2
v 1 2.3 1.2
v 1 2.5 1.2
v 1 2.6 1.2
v -1 2.4 1.1
v -1 2.5 1.1
v -0.9 2.4 1.1
v -0.9 2.5 1.1
v 0.9 2.4 1.1
v 0.9 2.5 1.1
v 1 2.4 1.1
v 1 2.5 1.1
v -1 2.3 1
v -1 2.4 1
v -0.9 2.3 1
v -0.9 2.4 1
v 0.9 2.3 1
v 0.9 2.4 1
v 1 2.3 1
v 1 2.4 1
v -1 2.2 0.9
v -1 2.3 0.9
v -1 2.5 0.9
v -1 2.6 0.9
v -0.9 2.2 0.9
v -0.9 2.3 0.9
v -0.9 2.5 0.9
v -0.9 2.6 0.9
v 0.9 2.2 0.9
v 0.9 2.3 0.9
v 0.9 2.5 0.9
v 0.9 2.6 0.9
v 1 2.2 0.9
v 1 2.3 0.9
v 1 2.5 0.9
v 1 2.6 0.9
v -0.1 3 -0.2
v -0.1 3.1 -0.2
v 0 3 -0.2
v 0 3.1 -0.2
v 0.1 3 -0.2
v 0.1 3.1 -0.2
v 0.2 3 -0.2
v 0.2 3.1 -0.2
v 0.3 3 -0.2
v 0.3 3.1 -0.2
v 0.5 3 -0.2
v 0.5 3.1 -0.2
v -0.1 3 -0.6
v -0.1 3.1 -0.6
v 0 3 -0.6
v 0 3.1 -0.6
v 0.1 3 -0.6
v 0.1 3.1 -0.6
v 0.2 3 -0.6
v 0.2 3.1 -0.6
v -0.3 3 -0.9
v -0.3 3.1 -0.9
v -0.2 3 -0.9
v -0.2 3.1 -0.9
v -0.5 3 -1
v -0.5 3.1 -1
v -0.3 3 -1
v -0.3 3.1 -1
v 0 3 -1
v 0 3.1 -1
v 0.2 3 -1
v 0.2 3.1 -1
v 0.3 3 -1
v 0.3 3.1 -1
v 0.7 3 -1
v 0.7 3.1 -1
v -0.4 3 -1.5
v -0.4 3.1 -1.5
v -0.3 3 -1.5
v -0.3 3.1 -1.5
v 0 3 -1.5
v 0 3.1 -1.5
v 0.1 3 -1.5
v 0.1 3.1 -1.5
v -0.5 3 -1.6
v -0.5 3.1 -1.6
v -0.4 3 -1.6
v -0.4 3.1 -1.6
v -0.2 3 -1.6
v -0.2 3.1 -1.6
v -0.1 3 -1.6
v -0.1 3.1 -1.6
v 0.1 3 -1.6
v 0.1 3.1 -1.6
v 0.2 3 -1.6
v 0.2 3.1 -1.6
v -0.5 3 -1.8
v -0.5 3.1 -1.8
v 0.2 3 -1.8
v 0.2 3.1 -1.8
v -0.2 2.1 5.3
v -0.1 2.1 5.3
v 0.1 2.1 5.3
v 0.2 2.1 5.3
v -0.2 2.1 2.3
v -0.1 2.1 2.3
v 0.1 2.1 2.3
v 0.2 2.1 2.3
v -1 2.2 1.3
v -0.9 2.2 1.3
v 0.9 2.2 1.3
v 1 2.2 1.3
v -1 2.2 1.2
v -0.9 2.2 1.2
v 0.9 2.2 1.2
v 1 2.2 1.2
v -1 2.2 1
v -0.9 2.2 1
v 0.9 2.2 1
v 1 2.2 1
v -1 2.2 0.9
v -0.9 2.2 0.9
v 0.9 2.2 0.9
v 1 2.2 0.9
v -1 2.3 1.1
v -0.9 2.3 1.1
v 0.9 2.3 1.1
v 1 2.3 1.1
v -1 2.3 1
v -0.9 2.3 1
v 0.9 2.3 1
v 1 2.3 1
v -1 2.4 1.2
v -0.9 2.4 1.2
v 0.9 2.4 1.2
v 1 2.4 1.2
v -1 2.4 1.1
v -0.9 2.4 1.1
v 0.9 2.4 1.1
v 1 2.4 1.1
v -1 2.5 1.3
v -0.9 2.5 1.3
v 0.9 2.5 1.3
v 1 2.5 1.3
v -1 2.5 1.2
v -0.9 2.5 1.2
v 0.9 2.5 1.2
v 1 2.5 1.2
v -1 2.5 1
v -0.9 2.5 1
v 0.9 2.5 1
v 1 2.5 1
v -1 2.5 0.9
v -0.9 2.5 0.9
v 0.9 2.5 0.9
v 1 2.5 0.9
v -0.5 3 -0.0999999
v -0.4 3 -0.0999999
v -0.1 3 -0.0999999
v 0.2 3 -0.0999999
v 0.3 3 -0.0999999
v 0.5 3 -0.0999999
v -0.1 3 -0.2
v 0 3 -0.2
v 0.1 3 -0.2
v 0.2 3 -0.2
v 0.3 3 -0.2
v 0.5 3 -0.2
v -0.1 3 -0.5
v 0 3 -0.5
v 0.1 3 -0.5
v 0.2 3 -0.5
v 0.6 3 -0.5
v 0.7 3 -0.5
v -0.1 3 -0.6
v 0 3 -0.6
v 0.1 3 -0.6
v 0.2 3 -0.6
v -0.3 3 -0.8
v -0.2 3 -0.8
v -0.4 3 -0.9
v -0.3 3 -0.9
v -0.2 3 -0.9
v 0.1 3 -0.9
v 0.2 3 -0.9
v 0.3 3 -0.9
v 0.6 3 -0.9
v -0.5 3 -1
v -0.3 3 -1
v 0 3 -1
v 0.2 3 -1
v 0.3 3 -1
v 0.7 3 -1
v -0.4 3 -1.4
v -0.3 3 -1.4
v -0.2 3 -1.4
v -0.1 3 -1.4
v 0 3 -1.4
v 0.1 3 -1.4
v -0.5 3 -1.5
v -0.4 3 -1.5
v -0.3 3 -1.5
v 0 3 -1.5
v 0.1 3 -1.5
v 0.2 3 -1.5
v -0.5 3 -1.6
v -0.4 3 -1.6
v -0.2 3 -1.6
v -0.1 3 -1.6
v 0.1 3 -1.6
v 0.2 3 -1.6
v -0.5 3 -1.7
v 0.2 3 -1.7
v -0.5 3 -1.8
v 0.2 3 -1.8
v -0.2 2.3 5.1
v -0.1 2.3 5.1
v 0.1 2.3 5.1
v 0.2 2.3 5.1
v -0.2 2.3 2.3
v -0.1 2.3 2.3
v 0.1 2.3 2.3
v 0.2 2.3 2.3
v -1 2.3 1.3
v -0.9 2.3 1.3
v 0.9 2.3 1.3
v 1 2.3 1.3
v -1 2.3 1.2
v -0.9 2.3 1.2
v 0.9 2.3 1.2
v 1 2.3 1.2
v -1 2.3 1
v -0.9 2.3 1
v 0.9 2.3 1
v 1 2.3 1
v -1 2.3 0.9
v -0.9 2.3 0.9
v 0.9 2.3 0.9
v 1 2.3 0.9
v -1 2.4 1.1
v -0.9 2.4 1.1
v 0.9 2.4 1.1
v 1 2.4 1.1
v -1 2.4 1
v -0.9 2.4 1
v 0.9 2.4 1
v 1 2.4 1
v -1 2.5 1.2
v -0.9 2.5 1.2
v 0.9 2.5 1.2
v 1 2.5 1.2
v -1 2.5 1.1
v -0.9 2.5 1.1
v 0.9 2.5 1.1
v 1 2.5 1.1
v -1 2.6 1.3
v -0.9 2.6 1.3
v 0.9 2.6 1.3
v 1 2.6 1.3
v -1 2.6 1.2
v -0.9 2.6 1.2
v 0.9 2.6 1.2
v 1 2.6 1.2
v -1 2.6 1
v -0.9 2.6 1
v 0.9 2.6 1
v 1 2.6 1
v -1 2.6 0.9
v -0.9 2.6 0.9
v 0.9 2.6 0.9
v 1 2.6 0.9
v -0.5 3.1 -0.0999999
v -0.4 3.1 -0.0999999
v -0.1 3.1 -0.0999999
v 0.2 3.1 -0.0999999
v 0.3 3.1 -0.0999999
v 0.5 3.1 -0.0999999
v -0.1 3.1 -0.2
v 0 3.1 -0.2
v 0.1 3.1 -0.2
v 0.2 3.1 -0.2
v 0.3 3.1 -0.2
v 0.5 3.1 -0.2
v -0.1 3.1 -0.5
v 0 3.1 -0.5
v 0.1 3.1 -0.5
v 0.2 3.1 -0.5
v 0.6 3.1 -0.5
v 0.7 3.1 -0.5
v -0.1 3.1 -0.6
v 0 3.1 -0.6
v 0.1 3.1 -0.6
v 0.2 3.1 -0.6
v -0.3 3.1 -0.8
v -0.2 3.1 -0.8
v -0.4 3.1 -0.9
v -0.3 3.1 -0.9
v -0.2 3.1 -0.9
v 0.1 3.1 -0.9
v 0.2 3.1 -0.9
v 0.3 3.1 -0.9
v 0.6 3.1 -0.9
v -0.5 3.1 -1
v -0.3 3.1 -1
v 0 3.1 -1
v 0.2 3.1 -1
v 0.3 3.1 -1
v 0.7 3.1 -1
v -0.4 3.1 -1.4
v -0.3 3.1 -1.4
v -0.2 3.1 -1.4
v -0.1 3.1 -1.4
v 0 3.1 -1.4
v 0.1 3.1 -1.4
v -0.5 3.1 -1.5
v -0.4 3.1 -1.5
v -0.3 3.1 -1.5
v 0 3.1 -1.5
v 0.1 3.1 -1.5
v 0.2 3.1 -1.5
v -0.5 3.1 -1.6
v -0.4 3.1 -1.6
v -0.2 3.1 -1.6
v -0.1 3.1 -1.6
v 0.1 3.1 -1.6
v 0.2 3.1 -1.6
v -0.5 3.1 -1.7
v 0.2 3.1 -1.7
v -0.5 3.1 -1.8
v 0.2 3.1 -1.8
v -0.2 3.8 5.3
v -0.1 3.8 5.3
v 0.1 3.8 5.3
v 0.2 3.8 5.3
v -0.2 3.8 5.1
v -0.1 3.8 5.1
v 0.1 3.8 5.1
v 0.2 3.8 5.1

# faces
f 5/2/1 2/2/1 1/2/1
f 6/2/1 2/2/1 5/2/1
f 8/2/1 4/2/1 3/2/1
f 9/2/1 4/2/1 8/2/1
f 11/2/1 8/2/1 7/2/1
f 12/2/1 8/2/1 11/2/1
f 14/2/1 11/2/1 10/2/1
f 15/2/1 11/2/1 14/2/1
f 18/2/1 14/2/1 13/2/1
f 19/2/1 14/2/1 18/2/1
f 20/2/1 17/2/1 16/2/1
f 21/2/1 17/2/1 20/2/1
f 28/2/1 23/2/1 22/2/1
f 29/2/1 23/2/1 28/2/1
f 30/2/1 25/2/1 24/2/1
f 31/2/1 25/2/1 30/2/1
f 32/2/1 27/2/1 26/2/1
f 33/2/1 27/2/1 32/2/1
f 36/2/1 35/2/1 34/2/1
f 37/2/1 35/2/1 36/2/1
f 40/2/1 39/2/1 38/2/1
f 41/2/1 39/2/1 40/2/1
f 44/1/1 43/1/1 42/1/1
f 45/1/1 43/1/1 44/1/1
f 48/2/1 47/2/1 46/2/1
f 49/2/1 47/2/1 48/2/1
f 50/1/1 44/1/1 42/1/1
f 51/1/1 44/1/1 50/1/1
f 56/2/1 53/2/1 52/2/1
f 57/2/1 53/2/1 56/2/1
f 58/2/1 55/2/1 54/2/1
f 59/2/1 55/2/1 58/2/1
f 66/2/1 61/2/1 60/2/1
f 67/2/1 61/2/1 66/2/1
f 68/2/1 63/2/1 62/2/1
f 69/2/1 63/2/1 68/2/1
f 70/2/1 65/2/1 64/2/1
f 71/2/1 65/2/1 70/2/1
f 74/1/1 73/1/1 72/1/1
f 75/1/1 73/1/1 74/1/1
f 78/2/1 77/2/1 76/2/1
f 79/2/1 77/2/1 78/2/1
f 80/1/1 74/1/1 72/1/1
f 81/1/1 74/1/1 80/1/1
f 86/2/1 83/2/1 82/2/1
f 87/2/1 83/2/1 86/2/1
f 88/2/1 85/2/1 84/2/1
f 89/2/1 85/2/1 88/2/1
f 92/2/1 91/2/1 90/2/1
f 93/2/1 91/2/1 92/2/1
f 98/2/1 95/2/1 94/2/1
f 99/2/1 95/2/1 98/2/1
f 101/2/1 97/2/1 96/2/1
f 102/2/1 97/2/1 101/2/1
f 104/2/1 101/2/1 100/2/1
f 105/2/1 101/2/1 104/2/1
f 107/2/1 104/2/1 103/2/1
f 108/2/1 104/2/1 107/2/1
f 111/2/1 107/2/1 106/2/1
f 112/2/1 107/2/1 111/2/1
f 113/2/1 110/2/1 109/2/1
f 114/2/1 110/2/1 113/2/1
f 115/2/2 116/2/2 119/2/2
f 119/2/2 116/2/2 120/2/2
f 117/2/2 118/2/2 122/2/2
f 122/2/2 118/2/2 123/2/2
f 121/2/2 122/2/2 125/2/2
f 125/2/2 122/2/2 126/2/2
f 124/2/2 125/2/2 128/2/2
f 128/2/2 125/2/2 129/2/2
f 127/2/2 128/2/2 132/2/2
f 132/2/2 128/2/2 133/2/2
f 130/2/2 131/2/2 134/2/2
f 134/2/2 131/2/2 135/2/2
f 136/2/2 137/2/2 140/2/2
f 140/2/2 137/2/2 141/2/2
f 138/2/2 139/2/2 142/2/2
f 142/2/2 139/2/2 143/2/2
f 144/2/2 145/2/2 148/2/2
f 148/2/2 145/2/2 149/2/2
f 146/2/2 147/2/2 150/2/2
f 150/2/2 147/2/2 151/2/2
f 152/2/2 153/2/2 154/2/2
f 154/2/2 153/2/2 155/2/2
f 156/1/2 157/1/2 158/1/2
f 158/1/2 157/1/2 159/1/2
f 160/2/2 161/2/2 162/2/2
f 162/2/2 161/2/2 163/2/2
f 156/1/2 158/1/2 164/1/2
f 164/1/2 158/1/2 165/1/2
f 166/2/2 167/2/2 172/2/2
f 172/2/2 167/2/2 173/2/2
f 168/2/2 169/2/2 174/2/2
f 174/2/2 169/2/2 175/2/2
f 170/2/2 171/2/2 176/2/2
f 176/2/2 171/2/2 177/2/2
f 178/1/2 179/1/2 180/1/2
f 180/1/2 179/1/2 181/1/2
f 182/2/2 183/2/2 192/2/2
f 192/2/2 183/2/2 193/2/2
f 184/2/2 185/2/2 194/2/2
f 194/2/2 185/2/2 195/2/2
f 186/2/2 187/2/2 196/2/2
f 196/2/2 187/2/2 197/2/2
f 188/2/2 189/2/2 198/2/2
f 198/2/2 189/2/2 199/2/2
f 190/2/2 191/2/2 200/2/2
f 200/2/2 191/2/2 201/2/2
f 178/1/2 180/1/2 202/1/2
f 202/1/2 180/1/2 203/1/2
f 204/2/2 205/2/2 206/2/2
f 206/2/2 205/2/2 207/2/2
f 208/2/2 209/2/2 210/2/2
f 210/2/2 209/2/2 211/2/2
f 212/2/2 213/2/2 216/2/2
f 216/2/2 213/2/2 217/2/2
f 214/2/2 215/2/2 219/2/2
f 219/2/2 215/2/2 220/2/2
f 218/2/2 219/2/2 222/2/2
f 222/2/2 219/2/2 223/2/2
f 221/2/2 222/2/2 225/2/2
f 225/2/2 222/2/2 226/2/2
f 224/2/2 225/2/2 229/2/2
f 229/2/2 225/2/2 230/2/2
f 227/2/2 228/2/2 231/2/2
f 231/2/2 228/2/2 232/2/2
f 235/1/3 234/1/3 233/1/3
f 236/1/3 234/1/3 235/1/3
f 239/1/3 238/1/3 237/1/3
f 240/1/3 238/1/3 239/1/3
f 245/2/3 242/2/3 241/2/3
f 246/2/3 242/2/3 245/2/3
f 247/2/3 244/2/3 243/2/3
f 248/2/3 244/2/3 247/2/3
f 253/2/3 250/2/3 249/2/3
f 254/2/3 250/2/3 253/2/3
f 255/2/3 252/2/3 251/2/3
f 256/2/3 252/2/3 255/2/3
f 259/2/3 258/2/3 257/2/3
f 260/2/3 258/2/3 259/2/3
f 263/2/3 262/2/3 261/2/3
f 264/2/3 262/2/3 263/2/3
f 267/2/3 266/2/3 265/2/3
f 268/2/3 266/2/3 267/2/3
f 271/2/3 270/2/3 269/2/3
f 272/2/3 270/2/3 271/2/3
f 277/2/3 274/2/3 273/2/3
f 278/2/3 274/2/3 277/2/3
f 279/2/3 276/2/3 275/2/3
f 280/2/3 276/2/3 279/2/3
f 285/2/3 282/2/3 281/2/3
f 286/2/3 282/2/3 285/2/3
f 287/2/3 284/2/3 283/2/3
f 288/2/3 284/2/3 287/2/3
f 291/2/3 290/2/3 289/2/3
f 292/2/3 290/2/3 291/2/3
f 295/2/3 294/2/3 293/2/3
f 296/2/3 294/2/3 295/2/3
f 299/2/3 298/2/3 297/2/3
f 300/2/3 298/2/3 299/2/3
f 303/2/3 302/2/3 301/2/3
f 304/2/3 302/2/3 303/2/3
f 307/2/3 306/2/3 305/2/3
f 308/2/3 306/2/3 307/2/3
f 311/2/3 310/2/3 309/2/3
f 312/2/3 310/2/3 311/2/3
f 315/2/3 314/2/3 313/2/3
f 316/2/3 314/2/3 315/2/3
f 319/2/3 318/2/3 317/2/3
f 320/2/3 318/2/3 319/2/3
f 323/2/3 322/2/3 321/2/3
f 324/2/3 322/2/3 323/2/3
f 327/2/3 326/2/3 325/2/3
f 328/2/3 326/2/3 327/2/3
f 331/2/3 330/2/3 329/2/3
f 332/2/3 330/2/3 331/2/3
f 335/2/3 334/2/3 333/2/3
f 336/2/3 334/2/3 335/2/3
f 339/2/3 338/2/3 337/2/3
f 340/2/3 338/2/3 339/2/3
f 343/2/3 342/2/3 341/2/3
f 344/2/3 342/2/3 343/2/3
f 347/2/3 346/2/3 345/2/3
f 348/2/3 346/2/3 347/2/3
f 351/2/3 350/2/3 349/2/3
f 352/2/3 350/2/3 351/2/3
f 353/1/4 354/1/4 355/1/4
f 355/1/4 354/1/4 356/1/4
f 357/1/4 358/1/4 359/1/4
f 359/1/4 358/1/4 360/1/4
f 361/1/4 362/1/4 363/1/4
f 363/1/4 362/1/4 364/1/4
f 365/1/4 366/1/4 367/1/4
f 367/1/4 366/1/4 368/1/4
f 369/2/4 370/2/4 373/2/4
f 373/2/4 370/2/4 374/2/4
f 371/2/4 372/2/4 375/2/4
f 375/2/4 372/2/4 376/2/4
f 377/2/4 378/2/4 381/2/4
f 381/2/4 378/2/4 382/2/4
f 379/2/4 380/2/4 383/2/4
f 383/2/4 380/2/4 384/2/4
f 385/2/4 386/2/4 387/2/4
f 387/2/4 386/2/4 388/2/4
f 389/2/4 390/2/4 391/2/4
f 391/2/4 390/2/4 392/2/4
f 393/2/4 394/2/4 395/2/4
f 395/2/4 394/2/4 396/2/4
f 397/2/4 398/2/4 399/2/4
f 399/2/4 398/2/4 400/2/4
f 401/2/4 402/2/4 405/2/4
f 405/2/4 402/2/4 406/2/4
f 403/2/4 404/2/4 407/2/4
f 407/2/4 404/2/4 408/2/4
f 409/2/4 410/2/4 413/2/4
f 413/2/4 410/2/4 414/2/4
f 411/2/4 412/2/4 415/2/4
f 415/2/4 412/2/4 416/2/4
f 417/2/4 418/2/4 419/2/4
f 419/2/4 418/2/4 420/2/4
f 421/2/4 422/2/4 423/2/4
f 423/2/4 422/2/4 424/2/4
f 425/2/4 426/2/4 427/2/4
f 427/2/4 426/2/4 428/2/4
f 429/2/4 430/2/4 431/2/4
f 431/2/4 430/2/4 432/2/4
f 433/2/4 434/2/4 435/2/4
f 435/2/4 434/2/4 436/2/4
f 437/2/4 438/2/4 439/2/4
f 439/2/4 438/2/4 440/2/4
f 441/2/4 442/2/4 443/2/4
f 443/2/4 442/2/4 444/2/4
f 445/2/4 446/2/4 447/2/4
f 447/2/4 446/2/4 448/2/4
f 449/2/4 450/2/4 451/2/4
f 451/2/4 450/2/4 452/2/4
f 453/2/4 454/2/4 455/2/4
f 455/2/4 454/2/4 456/2/4
f 457/2/4 458/2/4 459/2/4
f 459/2/4 458/2/4 460/2/4
f 461/2/4 462/2/4 463/2/4
f 463/2/4 462/2/4 464/2/4
f 465/2/4 466/2/4 467/2/4
f 467/2/4 466/2/4 468/2/4
f 469/2/4 470/2/4 471/2/4
f 471/2/4 470/2/4 472/2/4
f 473/2/4 474/2/4 475/2/4
f 475/2/4 474/2/4 476/2/4
f 481/1/5 478/1/5 477/1/5
f 482/1/5 478/1/5 481/1/5
f 483/1/5 480/1/5 479/1/5
f 484/1/5 480/1/5 483/1/5
f 489/2/5 486/2/5 485/2/5
f 490/2/5 486/2/5 489/2/5
f 491/2/5 488/2/5 487/2/5
f 492/2/5 488/2/5 491/2/5
f 497/2/5 494/2/5 493/2/5
f 498/2/5 494/2/5 497/2/5
f 499/2/5 496/2/5 495/2/5
f 500/2/5 496/2/5 499/2/5
f 505/2/5 502/2/5 501/2/5
f 506/2/5 502/2/5 505/2/5
f 507/2/5 504/2/5 503/2/5
f 508/2/5 504/2/5 507/2/5
f 513/2/5 510/2/5 509/2/5
f 514/2/5 510/2/5 513/2/5
f 515/2/5 512/2/5 511/2/5
f 516/2/5 512/2/5 515/2/5
f 521/2/5 518/2/5 517/2/5
f 522/2/5 518/2/5 521/2/5
f 523/2/5 520/2/5 519/2/5
f 524/2/5 520/2/5 523/2/5
f 529/2/5 526/2/5 525/2/5
f 530/2/5 526/2/5 529/2/5
f 531/2/5 528/2/5 527/2/5
f 532/2/5 528/2/5 531/2/5
f 539/2/5 536/2/5 535/2/5
f 540/2/5 536/2/5 539/2/5
f 541/2/5 536/2/5 540/2/5
f 542/2/5 536/2/5 541/2/5
f 543/2/5 538/2/5 537/2/5
f 544/2/5 538/2/5 543/2/5
f 546/2/5 541/2/5 540/2/5
f 547/2/5 541/2/5 546/2/5
f 551/2/5 548/2/5 547/2/5
f 551/2/5 546/2/5 545/2/5
f 551/2/5 547/2/5 546/2/5
f 552/2/5 548/2/5 551/2/5
f 553/2/5 548/2/5 552/2/5
f 554/2/5 548/2/5 553/2/5
f 557/2/5 534/2/5 533/2/5
f 558/2/5 556/2/5 555/2/5
f 559/2/5 556/2/5 558/2/5
f 560/2/5 553/2/5 552/2/5
f 563/2/5 550/2/5 549/2/5
f 564/2/5 557/2/5 533/2/5
f 564/2/5 558/2/5 557/2/5
f 565/2/5 558/2/5 564/2/5
f 566/2/5 560/2/5 552/2/5
f 566/2/5 561/2/5 560/2/5
f 567/2/5 561/2/5 566/2/5
f 568/2/5 563/2/5 562/2/5
f 569/2/5 550/2/5 563/2/5
f 569/2/5 563/2/5 568/2/5
f 577/2/5 571/2/5 570/2/5
f 578/2/5 571/2/5 577/2/5
f 579/2/5 575/2/5 574/2/5
f 580/2/5 575/2/5 579/2/5
f 582/2/5 577/2/5 576/2/5
f 583/2/5 577/2/5 582/2/5
f 584/2/5 573/2/5 572/2/5
f 585/2/5 573/2/5 584/2/5
f 586/2/5 581/2/5 580/2/5
f 587/2/5 581/2/5 586/2/5
f 590/2/5 589/2/5 588/2/5
f 591/2/5 589/2/5 590/2/5
f 592/1/6 593/1/6 596/1/6
f 596/1/6 593/1/6 597/1/6
f 594/1/6 595/1/6 598/1/6
f 598/1/6 595/1/6 599/1/6
f 600/2/6 601/2/6 604/2/6
f 604/2/6 601/2/6 605/2/6
f 602/2/6 603/2/6 606/2/6
f 606/2/6 603/2/6 607/2/6
f 608/2/6 609/2/6 612/2/6
f 612/2/6 609/2/6 613/2/6
f 610/2/6 611/2/6 614/2/6
f 614/2/6 611/2/6 615/2/6
f 616/2/6 617/2/6 620/2/6
f 620/2/6 617/2/6 621/2/6
f 618/2/6 619/2/6 622/2/6
f 622/2/6 619/2/6 623/2/6
f 624/2/6 625/2/6 628/2/6
f 628/2/6 625/2/6 629/2/6
f 626/2/6 627/2/6 630/2/6
f 630/2/6 627/2/6 631/2/6
f 632/2/6 633/2/6 636/2/6
f 636/2/6 633/2/6 637/2/6
f 634/2/6 635/2/6 638/2/6
f 638/2/6 635/2/6 639/2/6
f 640/2/6 641/2/6 644/2/6
f 644/2/6 641/2/6 645/2/6
f 642/2/6 643/2/6 646/2/6
f 646/2/6 643/2/6 647/2/6
f 650/2/6 651/2/6 654/2/6
f 654/2/6 651/2/6 655/2/6
f 655/2/6 651/2/6 656/2/6
f 656/2/6 651/2/6 657/2/6
f 652/2/6 653/2/6 658/2/6
f 658/2/6 653/2/6 659/2/6
f 655/2/6 656/2/6 661/2/6
f 661/2/6 656/2/6 662/2/6
f 662/2/6 663/2/6 666/2/6
f 660/2/6 661/2/6 666/2/6
f 661/2/6 662/2/6 666/2/6
f 666/2/6 663/2/6 667/2/6
f 667/2/6 663/2/6 668/2/6
f 668/2/6 663/2/6 669/2/6
f 648/2/6 649/2/6 672/2/6
f 670/2/6 671/2/6 673/2/6
f 673/2/6 671/2/6 674/2/6
f 667/2/6 668/2/6 675/2/6
f 664/2/6 665/2/6 678/2/6
f 648/2/6 672/2/6 679/2/6
f 672/2/6 673/2/6 679/2/6
f 679/2/6 673/2/6 680/2/6
f 667/2/6 675/2/6 681/2/6
f 675/2/6 676/2/6 681/2/6
f 681/2/6 676/2/6 682/2/6
f 677/2/6 678/2/6 683/2/6
f 678/2/6 665/2/6 684/2/6
f 683/2/6 678/2/6 684/2/6
f 685/2/6 686/2/6 692/2/6
f 692/2/6 686/2/6 693/2/6
f 689/2/6 690/2/6 694/2/6
f 694/2/6 690/2/6 695/2/6
f 691/2/6 692/2/6 697/2/6
f 697/2/6 692/2/6 698/2/6
f 687/2/6 688/2/6 699/2/6
f 699/2/6 688/2/6 700/2/6
f 695/2/6 696/2/6 701/2/6
f 701/2/6 696/2/6 702/2/6
f 703/2/6 704/2/6 705/2/6
f 705/2/6 704/2/6 706/2/6
f 707/1/6 708/1/6 711/1/6
f 711/1/6 708/1/6 712/1/6
f 709/1/6 710/1/6 713/1/6
f 713/1/6 710/1/6 714/1/6
