# MagicaVoxel @ Ephtracy

# group
o 

# material
mtllib Ketchup turret floor.mtl
usemtl palette

# normals
vn -1 0 0
vn 1 0 0
vn 0 0 1
vn 0 0 -1
vn 0 -1 0
vn 0 1 0

# texcoords
vt 0.00195313 0.5
vt 0.853516 0.5
vt 0.857422 0.5

# verts
v -1.4 -4.8 1.4
v -1.4 -4.8 0.6
v -1.4 -4.6 1.4
v -1.4 -4.6 0.6
v -1.3 -4.8 1.6
v -1.3 -4.8 1.4
v -1.3 -4.8 0.6
v -1.3 -4.8 0.4
v -1.3 -4.6 1.6
v -1.3 -4.6 1.4
v -1.3 -4.6 0.6
v -1.3 -4.6 0.4
v -1.2 -4.8 1.7
v -1.2 -4.8 1.6
v -1.2 -4.8 0.4
v -1.2 -4.8 0.3
v -1.2 -4.6 1.7
v -1.2 -4.6 1.6
v -1.2 -4.6 0.4
v -1.2 -4.6 0.3
v -1.1 -4.8 1.8
v -1.1 -4.8 1.7
v -1.1 -4.8 0.3
v -1.1 -4.8 0.2
v -1.1 -4.6 1.8
v -1.1 -4.6 1.7
v -1.1 -4.6 0.3
v -1.1 -4.6 0.2
v -0.9 -4.8 1.9
v -0.9 -4.8 1.8
v -0.9 -4.8 0.2
v -0.9 -4.8 0.1
v -0.9 -4.7 1.9
v -0.9 -4.7 1.8
v -0.9 -4.6 1.9
v -0.9 -4.6 1.8
v -0.9 -4.6 0.2
v -0.9 -4.6 0.1
v 0.9 -4.8 1.9
v 0.9 -4.8 1.8
v 0.9 -4.8 0.2
v 0.9 -4.8 0.1
v 0.9 -4.7 1.9
v 0.9 -4.7 1.8
v 0.9 -4.6 1.9
v 0.9 -4.6 1.8
v 0.9 -4.6 0.2
v 0.9 -4.6 0.1
v 1.1 -4.8 1.8
v 1.1 -4.8 1.7
v 1.1 -4.8 0.3
v 1.1 -4.8 0.2
v 1.1 -4.6 1.8
v 1.1 -4.6 1.7
v 1.1 -4.6 0.3
v 1.1 -4.6 0.2
v 1.2 -4.8 1.7
v 1.2 -4.8 1.6
v 1.2 -4.8 0.4
v 1.2 -4.8 0.3
v 1.2 -4.6 1.7
v 1.2 -4.6 1.6
v 1.2 -4.6 0.4
v 1.2 -4.6 0.3
v 1.3 -4.8 1.6
v 1.3 -4.8 1.4
v 1.3 -4.8 0.6
v 1.3 -4.8 0.4
v 1.3 -4.6 1.6
v 1.3 -4.6 1.4
v 1.3 -4.6 0.6
v 1.3 -4.6 0.4
v 1.4 -4.8 1.4
v 1.4 -4.8 0.6
v 1.4 -4.6 1.4
v 1.4 -4.6 0.6
v -0.9 -4.8 1.9
v -0.9 -4.7 1.9
v -0.9 -4.6 1.9
v -0.8 -4.8 1.9
v -0.8 -4.7 1.9
v -0.7 -4.7 1.9
v -0.7 -4.6 1.9
v 0.7 -4.7 1.9
v 0.7 -4.6 1.9
v 0.8 -4.8 1.9
v 0.8 -4.7 1.9
v 0.9 -4.8 1.9
v 0.9 -4.7 1.9
v 0.9 -4.6 1.9
v -1.1 -4.8 1.8
v -1.1 -4.6 1.8
v -0.9 -4.8 1.8
v -0.9 -4.7 1.8
v -0.9 -4.6 1.8
v 0.9 -4.8 1.8
v 0.9 -4.7 1.8
v 0.9 -4.6 1.8
v 1.1 -4.8 1.8
v 1.1 -4.6 1.8
v -1.2 -4.8 1.7
v -1.2 -4.6 1.7
v -1.1 -4.8 1.7
v -1.1 -4.6 1.7
v 1.1 -4.8 1.7
v 1.1 -4.6 1.7
v 1.2 -4.8 1.7
v 1.2 -4.6 1.7
v -1.3 -4.8 1.6
v -1.3 -4.6 1.6
v -1.2 -4.8 1.6
v -1.2 -4.6 1.6
v 1.2 -4.8 1.6
v 1.2 -4.6 1.6
v 1.3 -4.8 1.6
v 1.3 -4.6 1.6
v -1.4 -4.8 1.4
v -1.4 -4.6 1.4
v -1.3 -4.8 1.4
v -1.3 -4.6 1.4
v 1.3 -4.8 1.4
v 1.3 -4.6 1.4
v 1.4 -4.8 1.4
v 1.4 -4.6 1.4
v -1.4 -4.8 0.6
v -1.4 -4.6 0.6
v -1.3 -4.8 0.6
v -1.3 -4.6 0.6
v 1.3 -4.8 0.6
v 1.3 -4.6 0.6
v 1.4 -4.8 0.6
v 1.4 -4.6 0.6
v -1.3 -4.8 0.4
v -1.3 -4.6 0.4
v -1.2 -4.8 0.4
v -1.2 -4.6 0.4
v 1.2 -4.8 0.4
v 1.2 -4.6 0.4
v 1.3 -4.8 0.4
v 1.3 -4.6 0.4
v -1.2 -4.8 0.3
v -1.2 -4.6 0.3
v -1.1 -4.8 0.3
v -1.1 -4.6 0.3
v 1.1 -4.8 0.3
v 1.1 -4.6 0.3
v 1.2 -4.8 0.3
v 1.2 -4.6 0.3
v -1.1 -4.8 0.2
v -1.1 -4.6 0.2
v -0.9 -4.8 0.2
v -0.9 -4.6 0.2
v 0.9 -4.8 0.2
v 0.9 -4.6 0.2
v 1.1 -4.8 0.2
v 1.1 -4.6 0.2
v -0.9 -4.8 0.1
v -0.9 -4.6 0.1
v -0.3 -4.7 0.1
v -0.3 -4.6 0.1
v 0.3 -4.7 0.1
v 0.3 -4.6 0.1
v 0.9 -4.8 0.1
v 0.9 -4.6 0.1
v -0.9 -4.8 1.9
v -0.8 -4.8 1.9
v 0.8 -4.8 1.9
v 0.9 -4.8 1.9
v -1.1 -4.8 1.8
v -0.9 -4.8 1.8
v -0.8 -4.8 1.8
v 0.8 -4.8 1.8
v 0.9 -4.8 1.8
v 1.1 -4.8 1.8
v -1.2 -4.8 1.7
v -1.1 -4.8 1.7
v 1.1 -4.8 1.7
v 1.2 -4.8 1.7
v -1.3 -4.8 1.6
v -1.2 -4.8 1.6
v 1.2 -4.8 1.6
v 1.3 -4.8 1.6
v -1.4 -4.8 1.4
v -1.3 -4.8 1.4
v 1.3 -4.8 1.4
v 1.4 -4.8 1.4
v -1.4 -4.8 0.6
v -1.3 -4.8 0.6
v 1.3 -4.8 0.6
v 1.4 -4.8 0.6
v -1.3 -4.8 0.4
v -1.2 -4.8 0.4
v 1.2 -4.8 0.4
v 1.3 -4.8 0.4
v -1.2 -4.8 0.3
v -1.1 -4.8 0.3
v 1.1 -4.8 0.3
v 1.2 -4.8 0.3
v -1.1 -4.8 0.2
v -0.9 -4.8 0.2
v 0.9 -4.8 0.2
v 1.1 -4.8 0.2
v -0.9 -4.8 0.1
v 0.9 -4.8 0.1
v -0.9 -4.6 1.9
v -0.7 -4.6 1.9
v 0.7 -4.6 1.9
v 0.9 -4.6 1.9
v -1.1 -4.6 1.8
v -0.9 -4.6 1.8
v -0.7 -4.6 1.8
v 0.7 -4.6 1.8
v 0.9 -4.6 1.8
v 1.1 -4.6 1.8
v -1.2 -4.6 1.7
v -1.1 -4.6 1.7
v 1.1 -4.6 1.7
v 1.2 -4.6 1.7
v -1.3 -4.6 1.6
v -1.2 -4.6 1.6
v 1.2 -4.6 1.6
v 1.3 -4.6 1.6
v -1.4 -4.6 1.4
v -1.3 -4.6 1.4
v 1.3 -4.6 1.4
v 1.4 -4.6 1.4
v -1.4 -4.6 0.6
v -1.3 -4.6 0.6
v 1.3 -4.6 0.6
v 1.4 -4.6 0.6
v -1.3 -4.6 0.4
v -1.2 -4.6 0.4
v 1.2 -4.6 0.4
v 1.3 -4.6 0.4
v -1.2 -4.6 0.3
v -1.1 -4.6 0.3
v 1.1 -4.6 0.3
v 1.2 -4.6 0.3
v -1.1 -4.6 0.2
v -0.9 -4.6 0.2
v -0.3 -4.6 0.2
v 0.3 -4.6 0.2
v 0.9 -4.6 0.2
v 1.1 -4.6 0.2
v -0.9 -4.6 0.1
v -0.3 -4.6 0.1
v 0.3 -4.6 0.1
v 0.9 -4.6 0.1

# faces
f 3/2/1 2/2/1 1/2/1
f 4/2/1 2/2/1 3/2/1
f 9/2/1 6/2/1 5/2/1
f 10/2/1 6/2/1 9/2/1
f 11/2/1 8/2/1 7/2/1
f 12/2/1 8/2/1 11/2/1
f 17/2/1 14/2/1 13/2/1
f 18/2/1 14/2/1 17/2/1
f 19/2/1 16/2/1 15/2/1
f 20/2/1 16/2/1 19/2/1
f 25/2/1 22/2/1 21/2/1
f 26/2/1 22/2/1 25/2/1
f 27/2/1 24/2/1 23/2/1
f 28/2/1 24/2/1 27/2/1
f 33/2/1 30/2/1 29/2/1
f 34/2/1 30/2/1 33/2/1
f 35/3/1 34/3/1 33/3/1
f 36/3/1 34/3/1 35/3/1
f 37/2/1 32/2/1 31/2/1
f 38/2/1 32/2/1 37/2/1
f 39/2/2 40/2/2 43/2/2
f 43/2/2 40/2/2 44/2/2
f 43/3/2 44/3/2 45/3/2
f 45/3/2 44/3/2 46/3/2
f 41/2/2 42/2/2 47/2/2
f 47/2/2 42/2/2 48/2/2
f 49/2/2 50/2/2 53/2/2
f 53/2/2 50/2/2 54/2/2
f 51/2/2 52/2/2 55/2/2
f 55/2/2 52/2/2 56/2/2
f 57/2/2 58/2/2 61/2/2
f 61/2/2 58/2/2 62/2/2
f 59/2/2 60/2/2 63/2/2
f 63/2/2 60/2/2 64/2/2
f 65/2/2 66/2/2 69/2/2
f 69/2/2 66/2/2 70/2/2
f 67/2/2 68/2/2 71/2/2
f 71/2/2 68/2/2 72/2/2
f 73/2/2 74/2/2 75/2/2
f 75/2/2 74/2/2 76/2/2
f 80/2/3 78/2/3 77/2/3
f 81/3/3 79/3/3 78/3/3
f 81/2/3 78/2/3 80/2/3
f 82/3/3 81/3/3 80/3/3
f 82/3/3 79/3/3 81/3/3
f 83/3/3 79/3/3 82/3/3
f 84/3/3 82/3/3 80/3/3
f 84/1/3 83/1/3 82/1/3
f 85/1/3 83/1/3 84/1/3
f 86/3/3 84/3/3 80/3/3
f 86/3/3 85/3/3 84/3/3
f 87/3/3 85/3/3 86/3/3
f 88/2/3 87/2/3 86/2/3
f 89/3/3 85/3/3 87/3/3
f 89/2/3 87/2/3 88/2/3
f 90/3/3 85/3/3 89/3/3
f 93/2/3 92/2/3 91/2/3
f 94/2/3 92/2/3 93/2/3
f 95/2/3 92/2/3 94/2/3
f 99/2/3 97/2/3 96/2/3
f 99/2/3 98/2/3 97/2/3
f 100/2/3 98/2/3 99/2/3
f 103/2/3 102/2/3 101/2/3
f 104/2/3 102/2/3 103/2/3
f 107/2/3 106/2/3 105/2/3
f 108/2/3 106/2/3 107/2/3
f 111/2/3 110/2/3 109/2/3
f 112/2/3 110/2/3 111/2/3
f 115/2/3 114/2/3 113/2/3
f 116/2/3 114/2/3 115/2/3
f 119/2/3 118/2/3 117/2/3
f 120/2/3 118/2/3 119/2/3
f 123/2/3 122/2/3 121/2/3
f 124/2/3 122/2/3 123/2/3
f 125/2/4 126/2/4 127/2/4
f 127/2/4 126/2/4 128/2/4
f 129/2/4 130/2/4 131/2/4
f 131/2/4 130/2/4 132/2/4
f 133/2/4 134/2/4 135/2/4
f 135/2/4 134/2/4 136/2/4
f 137/2/4 138/2/4 139/2/4
f 139/2/4 138/2/4 140/2/4
f 141/2/4 142/2/4 143/2/4
f 143/2/4 142/2/4 144/2/4
f 145/2/4 146/2/4 147/2/4
f 147/2/4 146/2/4 148/2/4
f 149/2/4 150/2/4 151/2/4
f 151/2/4 150/2/4 152/2/4
f 153/2/4 154/2/4 155/2/4
f 155/2/4 154/2/4 156/2/4
f 157/2/4 158/2/4 159/2/4
f 159/2/4 158/2/4 160/2/4
f 157/2/4 159/2/4 161/2/4
f 159/1/4 160/1/4 161/1/4
f 161/1/4 160/1/4 162/1/4
f 157/2/4 161/2/4 163/2/4
f 161/2/4 162/2/4 163/2/4
f 163/2/4 162/2/4 164/2/4
f 170/2/5 166/2/5 165/2/5
f 171/3/5 167/3/5 166/3/5
f 171/2/5 166/2/5 170/2/5
f 172/2/5 168/2/5 167/2/5
f 172/3/5 167/3/5 171/3/5
f 173/2/5 168/2/5 172/2/5
f 176/2/5 171/2/5 170/2/5
f 176/2/5 174/2/5 173/2/5
f 176/2/5 173/2/5 172/2/5
f 176/2/5 172/2/5 171/2/5
f 176/2/5 170/2/5 169/2/5
f 177/2/5 174/2/5 176/2/5
f 180/2/5 176/2/5 175/2/5
f 180/2/5 178/2/5 177/2/5
f 180/2/5 177/2/5 176/2/5
f 181/2/5 178/2/5 180/2/5
f 184/2/5 180/2/5 179/2/5
f 184/2/5 182/2/5 181/2/5
f 184/2/5 181/2/5 180/2/5
f 185/2/5 182/2/5 184/2/5
f 187/2/5 184/2/5 183/2/5
f 187/2/5 186/2/5 185/2/5
f 187/2/5 185/2/5 184/2/5
f 188/2/5 186/2/5 187/2/5
f 189/2/5 186/2/5 188/2/5
f 190/2/5 186/2/5 189/2/5
f 191/2/5 189/2/5 188/2/5
f 192/2/5 189/2/5 191/2/5
f 193/2/5 189/2/5 192/2/5
f 194/2/5 189/2/5 193/2/5
f 195/2/5 193/2/5 192/2/5
f 196/2/5 193/2/5 195/2/5
f 197/2/5 193/2/5 196/2/5
f 198/2/5 193/2/5 197/2/5
f 199/2/5 197/2/5 196/2/5
f 200/2/5 197/2/5 199/2/5
f 201/2/5 197/2/5 200/2/5
f 202/2/5 197/2/5 201/2/5
f 203/2/5 201/2/5 200/2/5
f 204/2/5 201/2/5 203/2/5
f 205/3/6 206/3/6 210/3/6
f 206/1/6 207/1/6 211/1/6
f 210/3/6 206/3/6 211/3/6
f 207/3/6 208/3/6 212/3/6
f 211/1/6 207/1/6 212/1/6
f 212/3/6 208/3/6 213/3/6
f 210/2/6 211/2/6 216/2/6
f 213/2/6 214/2/6 216/2/6
f 212/2/6 213/2/6 216/2/6
f 211/2/6 212/2/6 216/2/6
f 209/2/6 210/2/6 216/2/6
f 216/2/6 214/2/6 217/2/6
f 215/2/6 216/2/6 220/2/6
f 217/2/6 218/2/6 220/2/6
f 216/2/6 217/2/6 220/2/6
f 220/2/6 218/2/6 221/2/6
f 219/2/6 220/2/6 224/2/6
f 221/2/6 222/2/6 224/2/6
f 220/2/6 221/2/6 224/2/6
f 224/2/6 222/2/6 225/2/6
f 223/2/6 224/2/6 227/2/6
f 225/2/6 226/2/6 227/2/6
f 224/2/6 225/2/6 227/2/6
f 227/2/6 226/2/6 228/2/6
f 228/2/6 226/2/6 229/2/6
f 229/2/6 226/2/6 230/2/6
f 228/2/6 229/2/6 231/2/6
f 231/2/6 229/2/6 232/2/6
f 232/2/6 229/2/6 233/2/6
f 233/2/6 229/2/6 234/2/6
f 232/2/6 233/2/6 235/2/6
f 235/2/6 233/2/6 236/2/6
f 236/2/6 233/2/6 237/2/6
f 237/2/6 233/2/6 238/2/6
f 236/2/6 237/2/6 239/2/6
f 239/2/6 237/2/6 240/2/6
f 240/2/6 237/2/6 241/2/6
f 241/2/6 237/2/6 242/2/6
f 242/2/6 237/2/6 243/2/6
f 243/2/6 237/2/6 244/2/6
f 240/2/6 241/2/6 245/2/6
f 241/1/6 242/1/6 246/1/6
f 245/2/6 241/2/6 246/2/6
f 242/2/6 243/2/6 247/2/6
f 246/1/6 242/1/6 247/1/6
f 247/2/6 243/2/6 248/2/6
