# MagicaVoxel @ Ephtracy

# group
o 

# material
mtllib Gorilla Burguer Lhand.mtl
usemtl palette

# normals
vn -1 0 0
vn 1 0 0
vn 0 0 1
vn 0 0 -1
vn 0 -1 0
vn 0 1 0

# texcoords
vt 0.0449219 0.5
vt 0.205078 0.5
vt 0.537109 0.5
vt 0.994141 0.5

# verts
v 2.9 -4.9 2.6
v 2.9 -4.9 1.2
v 2.9 -4.8 2.6
v 2.9 -4.8 2.5
v 2.9 -4.7 2.6
v 2.9 -4.7 2.5
v 2.9 -4.5 2
v 2.9 -4.5 1.2
v 2.9 -4 2.6
v 2.9 -4 2
v 2.9 -4 1.3
v 2.9 -1.9 1.3
v 2.9 -1.9 0.6
v 2.9 -1.8 2.6
v 2.9 -1.8 2.3
v 2.9 -1 2.3
v 2.9 -1 1.8
v 2.9 -0.6 0.6
v 2.9 -0.6 0.4
v 2.9 0.9 1.8
v 2.9 0.9 1.5
v 2.9 0.9 1
v 2.9 0.9 0.4
v 2.9 1.1 1.5
v 2.9 1.1 1
v 3.1 0.9 1.7
v 3.1 0.9 1.5
v 3.1 0.9 1
v 3.1 0.9 0.5
v 3.1 1 1.7
v 3.1 1 1.5
v 3.1 1 1
v 3.1 1 0.5
v 3.6 1 1
v 3.6 1 0.7
v 3.6 1.1 1
v 3.6 1.1 0.7
v 3.8 1 0.7
v 3.8 1 0.6
v 3.8 1.1 0.7
v 3.8 1.1 0.6
v 3.9 1 1
v 3.9 1 0.8
v 3.9 1.1 1
v 3.9 1.1 0.8
v 4 -4.9 2.6
v 4 -4.9 1.2
v 4 -4.8 2.6
v 4 -4.8 2.5
v 4 -4.7 2.6
v 4 -4.7 2.5
v 4 -4.5 2
v 4 -4.5 1.2
v 4 -4 2.6
v 4 -4 2
v 4 -4 1.3
v 4 -1.9 1.3
v 4 -1.9 0.6
v 4 -1.8 2.6
v 4 -1.8 2.3
v 4 -1 2.3
v 4 -1 1.8
v 4 -0.6 0.6
v 4 -0.6 0.4
v 4 -0.5 1.7
v 4 -0.5 0.5
v 4 0.9 1.8
v 4 0.9 1.7
v 4 0.9 0.5
v 4 0.9 0.4
v 4.2 -0.5 1.7
v 4.2 -0.5 0.5
v 4.2 0 1.4
v 4.2 0 1.3
v 4.2 0.2 1.1
v 4.2 0.2 1
v 4.2 0.5 1.2
v 4.2 0.5 1.1
v 4.2 0.5 0.8
v 4.2 0.5 0.6
v 4.2 0.7 1.1
v 4.2 0.7 1
v 4.2 0.9 1.5
v 4.2 0.9 1.4
v 4.2 0.9 1.3
v 4.2 0.9 1.2
v 4.2 0.9 1.1
v 4.2 0.9 1
v 4.2 1 1.7
v 4.2 1 1.5
v 4.2 1 1
v 4.2 1 0.8
v 4.2 1 0.6
v 4.2 1 0.5
v 4.3 0 1.4
v 4.3 0 1.3
v 4.3 0.2 1.1
v 4.3 0.2 1
v 4.3 0.5 1.2
v 4.3 0.5 1.1
v 4.3 0.5 0.8
v 4.3 0.5 0.6
v 4.3 0.7 1.1
v 4.3 0.7 1
v 4.3 0.9 1.5
v 4.3 0.9 1.4
v 4.3 0.9 1.3
v 4.3 0.9 1.2
v 4.3 0.9 1.1
v 4.3 0.9 1
v 4.3 1.1 1.5
v 4.3 1.1 1
v 4.3 1.1 0.8
v 4.3 1.1 0.6
v 2.9 -4.9 2.6
v 2.9 -4.8 2.6
v 2.9 -4.7 2.6
v 2.9 -4 2.6
v 2.9 -1.8 2.6
v 3 -4.9 2.6
v 3 -4.8 2.6
v 3 -4.7 2.6
v 3.1 -4.9 2.6
v 3.1 -4.8 2.6
v 3.1 -4.7 2.6
v 3.2 -4.9 2.6
v 3.2 -4.8 2.6
v 3.2 -4.7 2.6
v 3.2 -4 2.6
v 3.3 -4.9 2.6
v 3.3 -4.8 2.6
v 3.3 -4.7 2.6
v 3.3 -4 2.6
v 3.4 -4.9 2.6
v 3.4 -4.8 2.6
v 3.4 -4.7 2.6
v 3.5 -4.9 2.6
v 3.5 -4.8 2.6
v 3.5 -4.7 2.6
v 3.6 -4.9 2.6
v 3.6 -4.8 2.6
v 3.6 -4.7 2.6
v 3.6 -4 2.6
v 3.7 -4.9 2.6
v 3.7 -4.8 2.6
v 3.7 -4.7 2.6
v 3.7 -4 2.6
v 3.8 -4.9 2.6
v 3.8 -4.8 2.6
v 3.8 -4.7 2.6
v 3.9 -4.9 2.6
v 3.9 -4.8 2.6
v 3.9 -4.7 2.6
v 4 -4.9 2.6
v 4 -4.8 2.6
v 4 -4.7 2.6
v 4 -4 2.6
v 4 -1.8 2.6
v 2.9 -1.8 2.3
v 2.9 -1 2.3
v 4 -1.8 2.3
v 4 -1 2.3
v 2.9 -1 1.8
v 2.9 0.9 1.8
v 4 -1 1.8
v 4 0.9 1.8
v 3.1 0.9 1.7
v 3.1 1 1.7
v 4 -0.5 1.7
v 4 0.9 1.7
v 4.2 -0.5 1.7
v 4.2 1 1.7
v 2.9 0.9 1.5
v 2.9 1.1 1.5
v 3.1 0.9 1.5
v 3.1 1 1.5
v 4.2 0.9 1.5
v 4.2 1 1.5
v 4.3 0.9 1.5
v 4.3 1.1 1.5
v 4.2 0 1.4
v 4.2 0.9 1.4
v 4.3 0 1.4
v 4.3 0.9 1.4
v 4.2 0.5 1.2
v 4.2 0.9 1.2
v 4.3 0.5 1.2
v 4.3 0.9 1.2
v 4.2 0.2 1.1
v 4.2 0.5 1.1
v 4.3 0.2 1.1
v 4.3 0.5 1.1
v 3.9 1 0.8
v 3.9 1.1 0.8
v 4.2 0.5 0.8
v 4.2 1 0.8
v 4.3 0.5 0.8
v 4.3 1.1 0.8
v 2.9 -4.5 2
v 2.9 -4 2
v 4 -4.5 2
v 4 -4 2
v 2.9 -4 1.3
v 2.9 -1.9 1.3
v 4 -4 1.3
v 4 -1.9 1.3
v 4.2 0 1.3
v 4.2 0.9 1.3
v 4.3 0 1.3
v 4.3 0.9 1.3
v 2.9 -4.9 1.2
v 2.9 -4.5 1.2
v 3.2 -4.9 1.2
v 3.2 -4.5 1.2
v 3.3 -4.9 1.2
v 3.3 -4.5 1.2
v 3.6 -4.9 1.2
v 3.6 -4.5 1.2
v 3.7 -4.9 1.2
v 3.7 -4.5 1.2
v 4 -4.9 1.2
v 4 -4.5 1.2
v 4.2 0.7 1.1
v 4.2 0.9 1.1
v 4.3 0.7 1.1
v 4.3 0.9 1.1
v 2.9 0.9 1
v 2.9 1.1 1
v 3.1 0.9 1
v 3.1 1 1
v 3.6 1 1
v 3.6 1.1 1
v 3.9 1 1
v 3.9 1.1 1
v 4.2 0.2 1
v 4.2 0.7 1
v 4.2 0.9 1
v 4.2 1 1
v 4.3 0.2 1
v 4.3 0.7 1
v 4.3 0.9 1
v 4.3 1.1 1
v 3.6 1 0.7
v 3.6 1.1 0.7
v 3.8 1 0.7
v 3.8 1.1 0.7
v 2.9 -1.9 0.6
v 2.9 -0.6 0.6
v 3.8 1 0.6
v 3.8 1.1 0.6
v 4 -1.9 0.6
v 4 -0.6 0.6
v 4.2 0.5 0.6
v 4.2 1 0.6
v 4.3 0.5 0.6
v 4.3 1.1 0.6
v 3.1 0.9 0.5
v 3.1 1 0.5
v 4 -0.5 0.5
v 4 0.9 0.5
v 4.2 -0.5 0.5
v 4.2 1 0.5
v 2.9 -0.6 0.4
v 2.9 0.9 0.4
v 4 -0.6 0.4
v 4 0.9 0.4
v 2.9 -4.9 2.6
v 3 -4.9 2.6
v 3.1 -4.9 2.6
v 3.2 -4.9 2.6
v 3.3 -4.9 2.6
v 3.4 -4.9 2.6
v 3.5 -4.9 2.6
v 3.6 -4.9 2.6
v 3.7 -4.9 2.6
v 3.8 -4.9 2.6
v 3.9 -4.9 2.6
v 4 -4.9 2.6
v 3 -4.9 2.5
v 3.1 -4.9 2.5
v 3.4 -4.9 2.5
v 3.5 -4.9 2.5
v 3.8 -4.9 2.5
v 3.9 -4.9 2.5
v 2.9 -4.9 1.2
v 3.2 -4.9 1.2
v 3.3 -4.9 1.2
v 3.6 -4.9 1.2
v 3.7 -4.9 1.2
v 4 -4.9 1.2
v 2.9 -4 2
v 4 -4 2
v 2.9 -4 1.3
v 4 -4 1.3
v 2.9 -1.9 1.3
v 4 -1.9 1.3
v 2.9 -1.9 0.6
v 4 -1.9 0.6
v 2.9 -0.6 0.6
v 4 -0.6 0.6
v 2.9 -0.6 0.4
v 4 -0.6 0.4
v 4 -0.5 1.7
v 4.2 -0.5 1.7
v 4 -0.5 0.5
v 4.2 -0.5 0.5
v 4.2 0 1.4
v 4.3 0 1.4
v 4.2 0 1.3
v 4.3 0 1.3
v 4.2 0.2 1.1
v 4.3 0.2 1.1
v 4.2 0.2 1
v 4.3 0.2 1
v 4.2 0.5 1.2
v 4.3 0.5 1.2
v 4.2 0.5 1.1
v 4.3 0.5 1.1
v 4.2 0.5 0.8
v 4.3 0.5 0.8
v 4.2 0.5 0.6
v 4.3 0.5 0.6
v 4.2 0.9 1.5
v 4.3 0.9 1.5
v 4.2 0.9 1.4
v 4.3 0.9 1.4
v 4.2 0.9 1.3
v 4.3 0.9 1.3
v 4.2 0.9 1.2
v 4.3 0.9 1.2
v 4.2 0.9 1.1
v 4.3 0.9 1.1
v 4.2 0.9 1
v 4.3 0.9 1
v 2.9 -4.5 2
v 4 -4.5 2
v 3.2 -4.5 1.6
v 3.3 -4.5 1.6
v 3.6 -4.5 1.6
v 3.7 -4.5 1.6
v 2.9 -4.5 1.2
v 3.2 -4.5 1.2
v 3.3 -4.5 1.2
v 3.6 -4.5 1.2
v 3.7 -4.5 1.2
v 4 -4.5 1.2
v 2.9 -1.8 2.6
v 4 -1.8 2.6
v 2.9 -1.8 2.3
v 4 -1.8 2.3
v 2.9 -1 2.3
v 4 -1 2.3
v 2.9 -1 1.8
v 4 -1 1.8
v 4.2 0.7 1.1
v 4.3 0.7 1.1
v 4.2 0.7 1
v 4.3 0.7 1
v 2.9 0.9 1.8
v 4 0.9 1.8
v 3.1 0.9 1.7
v 4 0.9 1.7
v 2.9 0.9 1.5
v 3.1 0.9 1.5
v 2.9 0.9 1
v 3.1 0.9 1
v 3.1 0.9 0.5
v 4 0.9 0.5
v 2.9 0.9 0.4
v 4 0.9 0.4
v 3.1 1 1.7
v 4.2 1 1.7
v 3.1 1 1.5
v 4.2 1 1.5
v 3.1 1 1
v 3.6 1 1
v 3.9 1 1
v 4.2 1 1
v 3.9 1 0.8
v 4.2 1 0.8
v 3.6 1 0.7
v 3.8 1 0.7
v 3.8 1 0.6
v 4.2 1 0.6
v 3.1 1 0.5
v 4.2 1 0.5
v 2.9 1.1 1.5
v 4.3 1.1 1.5
v 2.9 1.1 1
v 3.6 1.1 1
v 3.9 1.1 1
v 4.3 1.1 1
v 3.9 1.1 0.8
v 4.3 1.1 0.8
v 3.6 1.1 0.7
v 3.8 1.1 0.7
v 3.8 1.1 0.6
v 4.3 1.1 0.6

# faces
f 3/3/1 2/3/1 1/3/1
f 4/3/1 2/3/1 3/3/1
f 5/4/1 4/4/1 3/4/1
f 6/3/1 2/3/1 4/3/1
f 6/4/1 4/4/1 5/4/1
f 7/3/1 6/3/1 5/3/1
f 7/3/1 2/3/1 6/3/1
f 8/3/1 2/3/1 7/3/1
f 9/3/1 7/3/1 5/3/1
f 10/3/1 7/3/1 9/3/1
f 12/2/1 10/2/1 9/2/1
f 12/2/1 11/2/1 10/2/1
f 14/2/1 12/2/1 9/2/1
f 14/2/1 13/2/1 12/2/1
f 15/2/1 13/2/1 14/2/1
f 16/2/1 13/2/1 15/2/1
f 17/2/1 13/2/1 16/2/1
f 18/2/1 13/2/1 17/2/1
f 20/2/1 18/2/1 17/2/1
f 20/2/1 19/2/1 18/2/1
f 21/2/1 19/2/1 20/2/1
f 22/2/1 19/2/1 21/2/1
f 23/2/1 19/2/1 22/2/1
f 24/1/1 22/1/1 21/1/1
f 25/1/1 22/1/1 24/1/1
f 30/2/1 27/2/1 26/2/1
f 31/2/1 27/2/1 30/2/1
f 32/2/1 29/2/1 28/2/1
f 33/2/1 29/2/1 32/2/1
f 36/1/1 35/1/1 34/1/1
f 37/1/1 35/1/1 36/1/1
f 40/1/1 39/1/1 38/1/1
f 41/1/1 39/1/1 40/1/1
f 42/1/2 43/1/2 44/1/2
f 44/1/2 43/1/2 45/1/2
f 46/3/2 47/3/2 48/3/2
f 48/3/2 47/3/2 49/3/2
f 48/4/2 49/4/2 50/4/2
f 49/3/2 47/3/2 51/3/2
f 50/4/2 49/4/2 51/4/2
f 50/3/2 51/3/2 52/3/2
f 51/3/2 47/3/2 52/3/2
f 52/3/2 47/3/2 53/3/2
f 50/3/2 52/3/2 54/3/2
f 54/3/2 52/3/2 55/3/2
f 54/2/2 55/2/2 57/2/2
f 55/2/2 56/2/2 57/2/2
f 54/2/2 57/2/2 59/2/2
f 57/2/2 58/2/2 59/2/2
f 59/2/2 58/2/2 60/2/2
f 60/2/2 58/2/2 61/2/2
f 61/2/2 58/2/2 62/2/2
f 62/2/2 58/2/2 63/2/2
f 62/2/2 63/2/2 65/2/2
f 63/2/2 64/2/2 65/2/2
f 65/2/2 64/2/2 66/2/2
f 62/2/2 65/2/2 67/2/2
f 67/2/2 65/2/2 68/2/2
f 66/2/2 64/2/2 69/2/2
f 69/2/2 64/2/2 70/2/2
f 71/2/2 72/2/2 73/2/2
f 73/2/2 72/2/2 74/2/2
f 74/2/2 72/2/2 75/2/2
f 75/2/2 72/2/2 76/2/2
f 74/2/2 75/2/2 77/2/2
f 77/2/2 75/2/2 78/2/2
f 76/2/2 72/2/2 79/2/2
f 79/2/2 72/2/2 80/2/2
f 76/2/2 79/2/2 82/2/2
f 71/2/2 73/2/2 83/2/2
f 83/2/2 73/2/2 84/2/2
f 74/2/2 77/2/2 85/2/2
f 85/2/2 77/2/2 86/2/2
f 81/2/2 82/2/2 87/2/2
f 82/2/2 79/2/2 88/2/2
f 87/2/2 82/2/2 88/2/2
f 71/2/2 83/2/2 89/2/2
f 89/2/2 83/2/2 90/2/2
f 88/2/2 79/2/2 91/2/2
f 91/2/2 79/2/2 92/2/2
f 80/2/2 72/2/2 93/2/2
f 93/2/2 72/2/2 94/2/2
f 97/1/2 98/1/2 100/1/2
f 100/1/2 98/1/2 103/1/2
f 99/1/2 100/1/2 103/1/2
f 103/1/2 98/1/2 104/1/2
f 95/1/2 96/1/2 106/1/2
f 106/1/2 96/1/2 107/1/2
f 99/1/2 103/1/2 108/1/2
f 108/1/2 103/1/2 109/1/2
f 106/1/2 107/1/2 111/1/2
f 109/1/2 110/1/2 111/1/2
f 108/1/2 109/1/2 111/1/2
f 107/1/2 108/1/2 111/1/2
f 105/1/2 106/1/2 111/1/2
f 111/1/2 110/1/2 112/1/2
f 101/1/2 102/1/2 113/1/2
f 113/1/2 102/1/2 114/1/2
f 120/3/3 116/3/3 115/3/3
f 121/4/3 117/4/3 116/4/3
f 121/3/3 116/3/3 120/3/3
f 122/3/3 118/3/3 117/3/3
f 122/4/3 117/4/3 121/4/3
f 123/4/3 121/4/3 120/4/3
f 124/3/3 122/3/3 121/3/3
f 124/4/3 121/4/3 123/4/3
f 125/3/3 118/3/3 122/3/3
f 125/3/3 122/3/3 124/3/3
f 126/3/3 124/3/3 123/3/3
f 127/4/3 125/4/3 124/4/3
f 127/3/3 124/3/3 126/3/3
f 128/3/3 118/3/3 125/3/3
f 128/4/3 125/4/3 127/4/3
f 129/2/3 119/2/3 118/2/3
f 129/3/3 118/3/3 128/3/3
f 130/4/3 128/4/3 127/4/3
f 130/4/3 127/4/3 126/4/3
f 130/4/3 129/4/3 128/4/3
f 131/4/3 129/4/3 130/4/3
f 132/4/3 129/4/3 131/4/3
f 133/2/3 119/2/3 129/2/3
f 133/4/3 129/4/3 132/4/3
f 134/3/3 131/3/3 130/3/3
f 135/4/3 132/4/3 131/4/3
f 135/3/3 131/3/3 134/3/3
f 136/3/3 133/3/3 132/3/3
f 136/4/3 132/4/3 135/4/3
f 137/4/3 135/4/3 134/4/3
f 138/3/3 136/3/3 135/3/3
f 138/4/3 135/4/3 137/4/3
f 139/3/3 133/3/3 136/3/3
f 139/3/3 136/3/3 138/3/3
f 140/3/3 138/3/3 137/3/3
f 141/4/3 139/4/3 138/4/3
f 141/3/3 138/3/3 140/3/3
f 142/3/3 133/3/3 139/3/3
f 142/4/3 139/4/3 141/4/3
f 143/2/3 119/2/3 133/2/3
f 143/3/3 133/3/3 142/3/3
f 144/4/3 142/4/3 141/4/3
f 144/4/3 141/4/3 140/4/3
f 144/4/3 143/4/3 142/4/3
f 145/4/3 143/4/3 144/4/3
f 146/4/3 143/4/3 145/4/3
f 147/2/3 119/2/3 143/2/3
f 147/4/3 143/4/3 146/4/3
f 148/3/3 145/3/3 144/3/3
f 149/4/3 146/4/3 145/4/3
f 149/3/3 145/3/3 148/3/3
f 150/3/3 147/3/3 146/3/3
f 150/4/3 146/4/3 149/4/3
f 151/4/3 149/4/3 148/4/3
f 152/3/3 150/3/3 149/3/3
f 152/4/3 149/4/3 151/4/3
f 153/3/3 147/3/3 150/3/3
f 153/3/3 150/3/3 152/3/3
f 154/3/3 152/3/3 151/3/3
f 155/4/3 153/4/3 152/4/3
f 155/3/3 152/3/3 154/3/3
f 156/3/3 147/3/3 153/3/3
f 156/4/3 153/4/3 155/4/3
f 157/2/3 119/2/3 147/2/3
f 157/3/3 147/3/3 156/3/3
f 158/2/3 119/2/3 157/2/3
f 161/2/3 160/2/3 159/2/3
f 162/2/3 160/2/3 161/2/3
f 165/2/3 164/2/3 163/2/3
f 166/2/3 164/2/3 165/2/3
f 170/2/3 168/2/3 167/2/3
f 171/2/3 170/2/3 169/2/3
f 172/2/3 168/2/3 170/2/3
f 172/2/3 170/2/3 171/2/3
f 175/1/3 174/1/3 173/1/3
f 176/1/3 174/1/3 175/1/3
f 178/1/3 174/1/3 176/1/3
f 179/1/3 178/1/3 177/1/3
f 180/1/3 174/1/3 178/1/3
f 180/1/3 178/1/3 179/1/3
f 183/1/3 182/1/3 181/1/3
f 184/1/3 182/1/3 183/1/3
f 187/1/3 186/1/3 185/1/3
f 188/1/3 186/1/3 187/1/3
f 191/1/3 190/1/3 189/1/3
f 192/1/3 190/1/3 191/1/3
f 196/1/3 194/1/3 193/1/3
f 197/1/3 196/1/3 195/1/3
f 198/1/3 194/1/3 196/1/3
f 198/1/3 196/1/3 197/1/3
f 199/3/4 200/3/4 201/3/4
f 201/3/4 200/3/4 202/3/4
f 203/2/4 204/2/4 205/2/4
f 205/2/4 204/2/4 206/2/4
f 207/1/4 208/1/4 209/1/4
f 209/1/4 208/1/4 210/1/4
f 211/3/4 212/3/4 213/3/4
f 213/3/4 212/3/4 214/3/4
f 213/4/4 214/4/4 215/4/4
f 215/4/4 214/4/4 216/4/4
f 215/3/4 216/3/4 217/3/4
f 217/3/4 216/3/4 218/3/4
f 217/4/4 218/4/4 219/4/4
f 219/4/4 218/4/4 220/4/4
f 219/3/4 220/3/4 221/3/4
f 221/3/4 220/3/4 222/3/4
f 223/1/4 224/1/4 225/1/4
f 225/1/4 224/1/4 226/1/4
f 227/1/4 228/1/4 229/1/4
f 229/1/4 228/1/4 230/1/4
f 230/1/4 228/1/4 231/1/4
f 231/1/4 228/1/4 232/1/4
f 233/1/4 234/1/4 238/1/4
f 235/1/4 236/1/4 239/1/4
f 239/1/4 236/1/4 240/1/4
f 237/1/4 238/1/4 241/1/4
f 238/1/4 234/1/4 242/1/4
f 241/1/4 238/1/4 242/1/4
f 243/1/4 244/1/4 245/1/4
f 245/1/4 244/1/4 246/1/4
f 247/2/4 248/2/4 251/2/4
f 251/2/4 248/2/4 252/2/4
f 249/1/4 250/1/4 254/1/4
f 253/1/4 254/1/4 255/1/4
f 254/1/4 250/1/4 256/1/4
f 255/1/4 254/1/4 256/1/4
f 257/2/4 258/2/4 260/2/4
f 259/2/4 260/2/4 261/2/4
f 260/2/4 258/2/4 262/2/4
f 261/2/4 260/2/4 262/2/4
f 263/2/4 264/2/4 265/2/4
f 265/2/4 264/2/4 266/2/4
f 279/3/5 268/3/5 267/3/5
f 279/4/5 269/4/5 268/4/5
f 280/3/5 270/3/5 269/3/5
f 280/4/5 269/4/5 279/4/5
f 281/3/5 272/3/5 271/3/5
f 281/4/5 273/4/5 272/4/5
f 282/3/5 274/3/5 273/3/5
f 282/4/5 273/4/5 281/4/5
f 283/4/5 277/4/5 276/4/5
f 283/3/5 276/3/5 275/3/5
f 284/3/5 278/3/5 277/3/5
f 284/4/5 277/4/5 283/4/5
f 285/3/5 279/3/5 267/3/5
f 285/3/5 280/3/5 279/3/5
f 286/4/5 271/4/5 270/4/5
f 286/3/5 280/3/5 285/3/5
f 286/3/5 270/3/5 280/3/5
f 287/3/5 282/3/5 281/3/5
f 287/4/5 271/4/5 286/4/5
f 287/3/5 281/3/5 271/3/5
f 288/3/5 274/3/5 282/3/5
f 288/3/5 282/3/5 287/3/5
f 288/4/5 275/4/5 274/4/5
f 289/3/5 283/3/5 275/3/5
f 289/4/5 275/4/5 288/4/5
f 289/3/5 284/3/5 283/3/5
f 290/3/5 278/3/5 284/3/5
f 290/3/5 284/3/5 289/3/5
f 293/2/5 292/2/5 291/2/5
f 294/2/5 292/2/5 293/2/5
f 297/2/5 296/2/5 295/2/5
f 298/2/5 296/2/5 297/2/5
f 301/2/5 300/2/5 299/2/5
f 302/2/5 300/2/5 301/2/5
f 305/2/5 304/2/5 303/2/5
f 306/2/5 304/2/5 305/2/5
f 309/1/5 308/1/5 307/1/5
f 310/1/5 308/1/5 309/1/5
f 313/1/5 312/1/5 311/1/5
f 314/1/5 312/1/5 313/1/5
f 317/1/5 316/1/5 315/1/5
f 318/1/5 316/1/5 317/1/5
f 321/1/5 320/1/5 319/1/5
f 322/1/5 320/1/5 321/1/5
f 325/1/5 324/1/5 323/1/5
f 326/1/5 324/1/5 325/1/5
f 329/1/5 328/1/5 327/1/5
f 330/1/5 328/1/5 329/1/5
f 333/1/5 332/1/5 331/1/5
f 334/1/5 332/1/5 333/1/5
f 335/3/6 336/3/6 337/3/6
f 337/3/6 336/3/6 338/3/6
f 338/3/6 336/3/6 339/3/6
f 339/3/6 336/3/6 340/3/6
f 335/3/6 337/3/6 341/3/6
f 337/4/6 338/4/6 342/4/6
f 341/3/6 337/3/6 342/3/6
f 338/3/6 339/3/6 343/3/6
f 342/4/6 338/4/6 343/4/6
f 339/4/6 340/4/6 344/4/6
f 343/3/6 339/3/6 344/3/6
f 340/3/6 336/3/6 345/3/6
f 344/4/6 340/4/6 345/4/6
f 345/3/6 336/3/6 346/3/6
f 347/2/6 348/2/6 349/2/6
f 349/2/6 348/2/6 350/2/6
f 351/2/6 352/2/6 353/2/6
f 353/2/6 352/2/6 354/2/6
f 355/1/6 356/1/6 357/1/6
f 357/1/6 356/1/6 358/1/6
f 359/2/6 360/2/6 361/2/6
f 361/2/6 360/2/6 362/2/6
f 359/2/6 361/2/6 363/2/6
f 363/2/6 361/2/6 364/2/6
f 365/2/6 366/2/6 367/2/6
f 365/2/6 367/2/6 369/2/6
f 367/2/6 368/2/6 369/2/6
f 369/2/6 368/2/6 370/2/6
f 371/2/6 372/2/6 373/2/6
f 373/2/6 372/2/6 374/2/6
f 377/2/6 378/2/6 379/2/6
f 379/2/6 378/2/6 380/2/6
f 375/2/6 376/2/6 381/2/6
f 381/2/6 382/2/6 383/2/6
f 375/2/6 381/2/6 385/2/6
f 383/2/6 384/2/6 385/2/6
f 381/2/6 383/2/6 385/2/6
f 385/2/6 384/2/6 386/2/6
f 387/1/6 388/1/6 389/1/6
f 389/1/6 388/1/6 390/1/6
f 390/1/6 388/1/6 391/1/6
f 391/1/6 388/1/6 392/1/6
f 390/1/6 391/1/6 393/1/6
f 390/1/6 393/1/6 395/1/6
f 393/1/6 394/1/6 395/1/6
f 395/1/6 394/1/6 396/1/6
f 396/1/6 394/1/6 397/1/6
f 397/1/6 394/1/6 398/1/6
